<?xml version="1.0" encoding="iso-8859-1"?>
<!-- Generator: Adobe Illustrator 19.0.0, SVG Export Plug-In . SVG Version: 6.00 Build 0)  -->
<svg version="1.1" id="Capa_1" xmlns="http://www.w3.org/2000/svg" xmlns:xlink="http://www.w3.org/1999/xlink" x="0px" y="0px"
	 viewBox="0 0 512 512" style="enable-background:new 0 0 512 512;" xml:space="preserve">
<g>
	<g>
		<path d="M189.043,292.425c-6.198-1.093-12.442,0.293-17.595,3.901c-5.152,3.607-8.59,9.006-9.682,15.199
			c-2.254,12.786,6.313,25.022,19.1,27.277c1.378,0.243,2.747,0.361,4.099,0.361c11.206-0.001,21.166-8.052,23.177-19.46
			C210.397,306.916,201.828,294.68,189.043,292.425z M193.344,317.092c-0.815,4.625-5.239,7.729-9.866,6.908
			c-4.626-0.816-7.725-5.241-6.909-9.866c0.807-4.571,5.292-7.714,9.867-6.908C191.059,308.041,194.158,312.467,193.344,317.092z"/>
	</g>
</g>
<g>
	<g>
		<path d="M227.666,257.741c-8.347-9.945-23.228-11.246-33.173-2.902c-4.817,4.043-7.773,9.719-8.321,15.985
			s1.377,12.369,5.42,17.188c4.044,4.818,9.72,7.773,15.985,8.321c0.7,0.061,1.399,0.091,2.093,0.091
			c5.521,0,10.815-1.92,15.094-5.511C234.709,282.569,236.012,267.688,227.666,257.741z M215.103,279.402
			c-1.742,1.463-3.952,2.155-6.216,1.961c-4.626-0.405-8.148-4.599-7.742-9.227c0.379-4.338,4.117-7.77,8.478-7.77
			c2.433,0,4.848,1.034,6.531,3.038C219.172,271,218.701,276.384,215.103,279.402z"/>
	</g>
</g>
<g>
	<g>
		<path d="M302.799,387.88c-2.15-5.912-6.475-10.63-12.174-13.288c-5.701-2.658-12.095-2.938-18.004-0.787
			c-12.201,4.44-18.514,17.978-14.074,30.18c3.346,9.189,12.311,15.505,22.112,15.505c2.715,0,5.44-0.476,8.068-1.433h-0.001
			c5.911-2.151,10.629-6.475,13.288-12.175C304.671,400.183,304.951,393.789,302.799,387.88z M288.392,399.53
			c-1.183,2.537-3.592,4.352-6.348,4.806c-3.988,0.658-7.995-1.704-9.373-5.493c-1.606-4.414,0.678-9.31,5.091-10.916
			c4.368-1.592,9.33,0.733,10.915,5.09C289.454,395.156,289.353,397.468,288.392,399.53z"/>
	</g>
</g>
<g>
	<g>
		<path d="M325.827,270.826c-0.548-6.266-3.504-11.942-8.321-15.985c-9.948-8.345-24.827-7.043-33.173,2.902
			c-8.345,9.946-7.043,24.827,2.903,33.173c4.28,3.591,9.575,5.511,15.094,5.511c0.694,0,1.394-0.03,2.093-0.091
			c6.265-0.548,11.942-3.504,15.984-8.321C324.451,283.195,326.375,277.092,325.827,270.826z M303.114,281.361
			c-2.266,0.195-4.474-0.498-6.216-1.961c-3.598-3.016-4.069-8.399-1.051-11.996c1.682-2.005,4.099-3.039,6.532-3.039
			c4.361,0,8.099,3.432,8.478,7.77C311.262,276.761,307.738,280.957,303.114,281.361z"/>
	</g>
</g>
<g>
	<g>
		<path d="M213.916,352.438c-6.493-11.243-20.92-15.109-32.165-8.618c-5.448,3.145-9.343,8.222-10.971,14.298
			c-1.627,6.075-0.792,12.42,2.354,17.867c3.144,5.448,8.222,9.343,14.297,10.971c2.029,0.543,4.087,0.813,6.133,0.813
			c4.079,0,8.107-1.07,11.735-3.165C216.541,378.112,220.407,363.682,213.916,352.438z M197.782,371.587
			c-1.971,1.137-4.265,1.44-6.463,0.851c-4.48-1.199-7.226-5.944-6.023-10.431c0.985-3.672,4.402-6.31,8.212-6.31
			c2.945,0,5.815,1.527,7.39,4.256C203.248,364.02,201.849,369.239,197.782,371.587z"/>
	</g>
</g>
<g>
	<g>
		<path d="M256,232.454c-12.983,0-23.546,10.563-23.546,23.546s10.563,23.546,23.546,23.546s23.546-10.563,23.546-23.546
			S268.983,232.454,256,232.454z M256,264.517c-4.696,0-8.517-3.82-8.517-8.517s3.82-8.517,8.517-8.517s8.517,3.82,8.517,8.517
			S260.696,264.517,256,264.517z"/>
	</g>
</g>
<g>
	<g>
		<path d="M256,208.407c-66.022,0-119.734,53.712-119.734,119.734S189.978,447.875,256,447.875s119.734-53.712,119.734-119.734
			S322.022,208.407,256,208.407z M256,432.845c-57.734,0-104.705-46.97-104.705-104.705c0-57.735,46.971-104.704,104.705-104.704
			s104.705,46.97,104.705,104.704C360.705,385.876,313.734,432.845,256,432.845z"/>
	</g>
</g>
<g>
	<g>
		<path d="M350.234,311.525c-1.092-6.194-4.53-11.592-9.682-15.199c-5.153-3.608-11.402-4.992-17.594-3.901
			c-12.787,2.253-21.355,14.49-19.1,27.276c2.011,11.409,11.97,19.46,23.177,19.46c1.352,0,2.722-0.117,4.099-0.36
			c0.001,0,0.001,0,0.001,0C343.921,336.548,352.488,324.311,350.234,311.525z M328.524,324.001h0.001
			c-4.634,0.82-9.051-2.283-9.867-6.909c-0.815-4.625,2.284-9.051,6.91-9.866c0.499-0.087,1-0.131,1.497-0.131
			c4.078,0,7.662,3.034,8.369,7.04C336.248,318.76,333.15,323.185,328.524,324.001z"/>
	</g>
</g>
<g>
	<g>
		<path d="M239.38,373.805c-5.911-2.151-12.306-1.872-18.005,0.786c-5.699,2.658-10.024,7.376-12.174,13.286
			c-2.15,5.911-1.872,12.304,0.786,18.004c2.658,5.7,7.376,10.024,13.287,12.175c2.628,0.957,5.352,1.433,8.068,1.433
			c3.393,0,6.772-0.742,9.937-2.218c5.699-2.658,10.024-7.376,12.175-13.287C257.893,391.783,251.579,378.245,239.38,373.805z
			 M239.329,398.845c-1.585,4.357-6.55,6.68-10.917,5.089c-4.357-1.586-6.678-6.549-5.089-10.916
			c1.209-3.323,4.454-5.608,7.997-5.608C237.144,387.41,241.315,393.386,239.329,398.845z"/>
	</g>
</g>
<g>
	<g>
		<path d="M341.221,358.116c-1.629-6.075-5.526-11.152-10.972-14.297c-11.244-6.492-25.673-2.625-32.165,8.619
			c-6.492,11.243-2.625,25.672,8.619,32.164c11.127,6.425,25.754,2.483,32.165-8.618
			C342.013,370.537,342.849,364.191,341.221,358.116z M325.851,368.47c0,0.324-0.635,0.961-0.838,1.203
			c-0.37,0.444-0.785,0.851-1.237,1.21c-0.911,0.724-1.973,1.253-3.096,1.555c-2.198,0.588-4.493,0.287-6.463-0.851
			c-4.067-2.349-5.465-7.568-3.117-11.634c1.576-2.729,4.445-4.257,7.39-4.257c3.811,0,7.228,2.638,8.212,6.31
			C327.291,364.204,326.99,366.499,325.851,368.47z"/>
	</g>
</g>
<g>
	<g>
		<path d="M256,288.564c-21.823,0-39.577,17.755-39.577,39.577c0,21.823,17.755,39.577,39.577,39.577s39.577-17.755,39.577-39.577
			C295.577,306.318,277.823,288.564,256,288.564z M256,352.689c-13.536,0-24.548-11.013-24.548-24.548
			c0-13.535,11.012-24.548,24.548-24.548s24.548,11.013,24.548,24.548C280.548,341.676,269.536,352.689,256,352.689z"/>
	</g>
</g>
<g>
	<g>
		<path d="M433.719,56.145c-0.146-0.1-0.293-0.202-0.448-0.295c-22.493-13.195-49.015-23.259-78.828-29.913
			c-4.049-0.909-8.067,1.646-8.972,5.697c-0.904,4.05,1.647,8.067,5.698,8.971c20.963,4.679,40.15,11.107,57.289,19.168
			c-23.689,7.463-42.632,25.717-51.044,48.973c-5.346-0.459-10.714-0.895-15.999-1.284c-16.117-1.186-32.183-2.06-47.751-2.597
			c-12.733-0.439-25.406-0.661-37.665-0.661c-11.831,0-24.051,0.207-36.323,0.615c-15.76,0.525-32.037,1.397-48.376,2.59
			c-5.553,0.406-11.158,0.859-16.716,1.337c-8.413-23.26-27.362-41.518-51.06-48.978C143.944,40.711,195.122,31.061,256,31.061
			c22.409,0,43.807,1.337,63.597,3.973c4.109,0.548,7.892-2.343,8.441-6.457c0.548-4.113-2.343-7.892-6.457-8.442
			c-20.446-2.723-42.512-4.104-65.582-4.104c-71.932,0-131.172,13.163-176.075,39.123c-0.489,0.283-0.929,0.615-1.328,0.982
			C35.163,56.708,0,92.198,0,135.765v32.063c0,4.15,3.364,7.515,7.515,7.515h144.282c4.151,0,7.515-3.365,7.515-7.515v-32.063
			c0-4.167-0.325-8.26-0.945-12.256c3.32-0.279,6.639-0.545,9.962-0.799v73.159l-63.037,42.025
			c-20.759,13.837-33.151,36.993-33.151,61.941v164.571c0,4.15,3.364,7.515,7.515,7.515h16.532v16.532
			c0,4.15,3.364,7.515,7.515,7.515h48.094c4.151,0,7.515-3.365,7.515-7.515v-16.532h193.378v16.532c0,4.15,3.364,7.515,7.515,7.515
			h48.094c4.151,0,7.515-3.365,7.515-7.515v-16.532h16.532c4.151,0,7.515-3.365,7.515-7.515V297.481
			c0-23.307-11.132-45.571-29.778-59.556l-66.41-49.807V122.71c3.31,0.253,6.63,0.519,9.962,0.8
			c-0.62,3.997-0.945,8.089-0.945,12.256v32.063c0,4.15,3.364,7.515,7.515,7.515h144.282c4.151,0,7.515-3.365,7.515-7.515v-32.063
			C512,92.304,477.008,56.883,433.719,56.145z M79.656,71.139c33.095,0,60.459,25.002,64.191,57.112H15.464
			C19.196,96.141,46.561,71.139,79.656,71.139z M144.282,160.313H15.029V143.28h129.252V160.313z M223.103,119.755
			c11.119-0.342,22.174-0.522,32.897-0.522c10.615,0,21.551,0.179,32.564,0.513v32.552h-65.461V119.755z M144.282,480.939h-33.065
			v-9.018h33.065V480.939z M400.783,480.939h-33.065v-9.018h33.065V480.939z M401.063,249.948
			c14.882,11.162,23.766,28.931,23.766,47.533v159.411H87.17V299.836c0-19.912,9.89-38.392,26.458-49.438l66.384-44.255
			c2.091-1.394,3.346-3.739,3.346-6.252v-78.24c8.303-0.533,16.563-0.984,24.715-1.342v39.503c0,4.15,3.364,7.515,7.515,7.515h80.49
			c4.151,0,7.515-3.365,7.515-7.515v-39.514c8.262,0.36,16.629,0.808,25.049,1.349v70.228c0,2.366,1.113,4.592,3.006,6.012
			L401.063,249.948z M432.344,71.139c33.095,0,60.459,25.002,64.191,57.112H368.153C371.885,96.141,399.25,71.139,432.344,71.139z
			 M496.971,160.313H367.718V143.28h129.252V160.313z"/>
	</g>
</g>
</svg>
