<?xml version="1.0" encoding="iso-8859-1"?>
<!-- Generator: Adobe Illustrator 19.0.0, SVG Export Plug-In . SVG Version: 6.00 Build 0)  -->
<svg viewBox="0 0 512.002 512.002" style="enable-background:new 0 0 512.002 512.002;" xml:space="preserve">
		<path d="M508.417,77.393c-7.717-14.15-25.508-19.383-39.66-11.665l-130.641,71.259c-11.839,6.457-20.455,17.139-24.261,30.078
			c-3.235,10.998-2.647,22.503,1.567,32.979H196.56c4.212-10.476,4.801-21.982,1.567-32.979
			c-3.805-12.939-12.422-23.621-24.261-30.078L43.224,65.728c-14.15-7.72-31.942-2.486-39.66,11.665
			c-7.717,14.15-2.484,31.94,11.665,39.659l14.473,7.895c-3.704,2.523-6.881,5.937-9.17,10.133
			c-3.739,6.854-4.584,14.755-2.382,22.246c2.203,7.491,7.192,13.675,14.046,17.413l14.454,7.884
			c-3.77,2.573-6.903,6.021-9.151,10.143c-3.739,6.855-4.585,14.756-2.382,22.246c2.202,7.491,7.192,13.675,14.046,17.413
			l39.415,21.5v169.019c0,14.83,12.065,26.896,26.896,26.896H396.51c14.83,0,26.896-12.065,26.896-26.896V253.923l39.414-21.5
			c6.855-3.738,11.844-9.923,14.047-17.413c2.203-7.491,1.357-15.39-2.381-22.246c-2.249-4.123-5.382-7.569-9.152-10.143
			l14.454-7.884c6.855-3.738,11.844-9.923,14.047-17.414c2.202-7.491,1.356-15.39-2.382-22.244
			c-2.248-4.123-5.382-7.571-9.152-10.144l14.455-7.885c6.855-3.738,11.844-9.923,14.047-17.413
			C513.004,92.145,512.156,84.247,508.417,77.393z M373.785,215.988L255.991,324.72L138.197,215.988H373.785z M220.533,313.689
			l-116.011,71.392V226.94c0-5.788,4.518-10.53,10.211-10.914L220.533,313.689z M88.577,226.94v8.821l-31.78-17.336
			c-3.115-1.7-5.383-4.51-6.385-7.915c-1.001-3.405-0.617-6.996,1.083-10.113c1.7-3.116,4.51-5.382,7.915-6.384
			c3.397-0.999,6.979-0.619,10.089,1.071l0.015,0.007l10.391,5.771c1.226,0.681,2.553,1.003,3.863,1.003
			c2.802,0,5.52-1.48,6.977-4.103c2.138-3.849,0.749-8.702-3.1-10.839l-10.437-5.795c-0.008-0.004-0.017-0.007-0.026-0.013
			c-0.01-0.005-0.018-0.012-0.028-0.017l-37.326-20.36c-3.115-1.7-5.383-4.511-6.384-7.916s-0.618-6.995,1.082-10.111
			c3.508-6.432,11.59-8.81,18.021-5.306l0.006,0.003c0.039,0.021,0.08,0.037,0.119,0.057c0.039,0.021,0.077,0.046,0.116,0.066
			l50.806,25.551c1.149,0.578,2.371,0.852,3.576,0.852c2.918,0,5.728-1.608,7.128-4.392c1.978-3.934,0.393-8.726-3.541-10.704
			L60.07,123.35l-37.206-20.297c-6.432-3.509-8.81-11.595-5.302-18.026c3.509-6.433,11.595-8.81,18.028-5.302l130.641,71.259
			c8.101,4.419,13.996,11.728,16.6,20.58c2.603,8.852,1.604,18.189-2.814,26.289l-1.196,2.192h-63.348
			C100.643,200.044,88.577,212.11,88.577,226.94z M407.462,422.942c0,6.048-4.903,10.952-10.952,10.952H115.473
			c-6.048,0-10.952-4.903-10.952-10.952v-19.139l128.181-78.88l17.882,16.506c1.527,1.409,3.467,2.114,5.407,2.114
			s3.88-0.705,5.407-2.114l17.882-16.506l27.662,17.023c3.144,1.935,7.205,1.458,9.815-1.152c3.642-3.642,2.926-9.728-1.459-12.427
			l-23.849-14.677l105.8-97.662c5.693,0.384,10.211,5.126,10.211,10.914V385.08l-52.18-32.111c-3.144-1.935-7.205-1.458-9.815,1.152
			c-3.642,3.642-2.926,9.728,1.459,12.427l60.538,37.254V422.942z M495.503,95.139c-1,3.405-3.269,6.216-6.385,7.915l-37.213,20.298
			l-50.683,25.489c-3.933,1.978-5.518,6.77-3.54,10.704c1.4,2.784,4.21,4.392,7.128,4.392c1.204,0,2.427-0.274,3.576-0.852
			l50.806-25.551c0.043-0.021,0.08-0.047,0.121-0.069c0.037-0.02,0.077-0.034,0.113-0.054c6.433-3.506,14.519-1.13,18.028,5.303
			c1.7,3.115,2.084,6.706,1.083,10.111c-1.001,3.406-3.269,6.217-6.385,7.916l-37.3,20.347c-0.01,0.005-0.018,0.01-0.027,0.015
			c-0.011,0.005-0.019,0.013-0.03,0.018c-0.007,0.003-0.015,0.006-0.022,0.011l-10.436,5.795c-3.85,2.138-5.237,6.99-3.099,10.839
			c1.456,2.624,4.174,4.103,6.976,4.103c1.308,0,2.637-0.323,3.863-1.003l10.381-5.764c0.001,0,0.002-0.001,0.003-0.001
			c3.117-1.7,6.707-2.084,10.112-1.083c3.405,1.001,6.216,3.269,7.916,6.384c1.7,3.117,2.083,6.708,1.082,10.113
			c-1,3.405-3.269,6.216-6.385,7.915l-31.779,17.335v-8.82c0-14.83-12.066-26.896-26.896-26.896h-63.348l-1.196-2.192
			c-4.418-8.1-5.418-17.437-2.814-26.289c2.604-8.852,8.499-16.161,16.6-20.58l130.64-71.259c6.434-3.506,14.518-1.13,18.028,5.302
			C496.119,88.142,496.504,91.734,495.503,95.139z"/>
</svg>
