<svg fill="#5882bf" xmlns="http://www.w3.org/2000/svg" viewBox="0 0 512 512"><path d="M313.902 68.794a8.055 8.055 0 0 0 4.683 1.5 8.085 8.085 0 0 0 4.696-14.67l-.876-.624c-3.638-2.589-8.686-1.742-11.275 1.896a8.085 8.085 0 0 0 1.895 11.275l.877.623zm-56.434 33.431c-6.071 4.376-9.552 11.178-9.552 18.661v72.971a22.972 22.972 0 0 0 15.729 21.821l79.302 26.433c.014.004.029.006.044.011.279.091.566.149.853.209.134.028.267.073.402.095.149.024.301.022.452.037.268.027.538.065.805.065.432 0 .86-.037 1.281-.105.042-.006.082-.022.123-.029a8.078 8.078 0 0 0 1.111-.273c.013-.004.027-.005.041-.01l79.303-26.433a22.973 22.973 0 0 0 15.728-21.821v-72.971c0-7.484-3.482-14.284-9.552-18.661-6.071-4.376-13.625-5.526-20.723-3.161l-67.311 22.438-67.311-22.438c-7.101-2.365-14.654-1.214-20.725 3.161zm96.118 33.624l64.341-21.446a6.756 6.756 0 0 1 6.155.939 6.76 6.76 0 0 1 2.838 5.544v72.971a6.824 6.824 0 0 1-4.672 6.482l-68.662 22.887v-87.377zm-16.168 87.377l-68.662-22.887a6.822 6.822 0 0 1-4.671-6.482v-72.971a6.761 6.761 0 0 1 2.837-5.544 6.756 6.756 0 0 1 6.156-.939l64.34 21.447v87.376zM355.053 58.41a8.055 8.055 0 0 0 4.683 1.5 8.085 8.085 0 0 0 4.696-14.67l-.877-.625a8.085 8.085 0 1 0-9.38 13.171l.878.624zm-18.766 26.335a8.055 8.055 0 0 0 4.683 1.5 8.085 8.085 0 0 0 4.696-14.67l-.877-.625a8.085 8.085 0 1 0-9.38 13.171l.878.624zm-89.988 195.508h-1.078a8.083 8.083 0 0 0-8.084 8.084 8.084 8.084 0 0 0 8.084 8.084h1.078a8.084 8.084 0 0 0 8.084-8.084 8.083 8.083 0 0 0-8.084-8.084z"/><path d="M63.844 249.789c-30.299-25.194-47.675-62.217-47.675-101.579 0-72.809 59.234-132.042 132.042-132.042 49.415 0 94.314 27.245 117.173 71.105a8.085 8.085 0 0 0 14.338-7.473C254.066 30.578 203.675 0 148.21 0 66.487 0 0 66.488 0 148.21c0 44.181 19.502 85.736 53.507 114.01a8.05 8.05 0 0 0 5.165 1.868 8.084 8.084 0 0 0 5.172-14.299z"/><path d="M137.432 145.516h1.078a8.083 8.083 0 0 0 8.084-8.084 8.084 8.084 0 0 0-8.084-8.084h-1.078a8.084 8.084 0 0 0-8.084 8.084 8.083 8.083 0 0 0 8.084 8.084zm176.312 183.671a8.081 8.081 0 0 0-10.675 4.092c-17.752 39.815-57.382 65.542-100.963 65.542-60.922 0-110.484-49.563-110.484-110.484 0-21.498 6.176-42.334 17.863-60.258a8.084 8.084 0 0 0-13.545-8.831c-13.401 20.557-20.486 44.447-20.486 69.089 0 69.837 56.816 126.653 126.653 126.653 49.956 0 95.383-29.489 115.73-75.127a8.086 8.086 0 0 0-4.093-10.676zm-197.87 101.971c-22.289 0-40.421 18.132-40.421 40.421 0 22.289 18.132 40.421 40.421 40.421s40.421-18.132 40.421-40.421c0-22.289-18.133-40.421-40.421-40.421zm0 64.674c-13.373 0-24.253-10.88-24.253-24.253s10.879-24.253 24.253-24.253c13.373 0 24.253 10.88 24.253 24.253s-10.88 24.253-24.253 24.253zM353.01 0c-28.645 0-56.73 7.704-81.216 22.282a8.083 8.083 0 0 0-2.811 11.081 8.083 8.083 0 0 0 11.082 2.811c21.986-13.088 47.211-20.006 72.945-20.006 78.752 0 142.821 64.069 142.821 142.821S431.763 301.811 353.01 301.811c-25.111 0-49.803-6.605-71.405-19.101a8.085 8.085 0 0 0-8.096 13.995c24.06 13.918 51.551 21.274 79.501 21.274 87.667 0 158.99-71.322 158.99-158.989S440.678 0 353.01 0z"/><path d="M246.299 312.589h-1.078a8.083 8.083 0 0 0-8.084 8.084 8.084 8.084 0 0 0 8.084 8.084h1.078a8.083 8.083 0 0 0 8.084-8.084 8.084 8.084 0 0 0-8.084-8.084zM84.747 190.656c7.398 7.396 17.114 11.096 26.831 11.096 9.529 0 19.051-3.567 26.392-10.68 7.34 7.113 16.864 10.68 26.392 10.68 9.717 0 19.433-3.699 26.831-11.096 14.652-14.652 14.784-38.397.416-53.224 14.368-14.828 14.236-38.572-.416-53.224-14.652-14.651-38.396-14.783-53.223-.416-14.828-14.367-38.571-14.235-53.223.416-14.652 14.652-14.784 38.397-.416 53.224-14.368 14.827-14.235 38.572.416 53.224zm11.434-11.433c-8.343-8.342-8.468-21.814-.415-30.335l30.75 30.751c-8.522 8.05-21.994 7.925-30.335-.416zm83.581-.001c-8.343 8.344-21.813 8.468-30.335.416l30.75-30.751c8.051 8.521 7.926 21.993-.415 30.335zm-.002-83.581c8.343 8.342 8.468 21.814.415 30.335l-30.75-30.751c8.522-8.051 21.994-7.926 30.335.416zm-10.994 41.791l-30.795 30.795-30.795-30.795 30.795-30.795 30.795 30.795zm-72.587-41.79c4.246-4.246 9.821-6.368 15.398-6.368a21.703 21.703 0 0 1 14.937 5.952l-30.75 30.751c-8.051-8.522-7.926-21.994.415-30.335zm167.905 149.579a8.084 8.084 0 0 0-8.084-8.084h-31.396a24.314 24.314 0 0 0-23.095 16.645l-24.925 74.775a8.165 8.165 0 0 1-7.755 5.591 8.15 8.15 0 0 1-7.242-4.382l-27.772-53.019a8.084 8.084 0 0 0-10.913-3.409 8.084 8.084 0 0 0-3.41 10.913l27.772 53.019a24.277 24.277 0 0 0 21.564 13.047 24.314 24.314 0 0 0 23.095-16.645l24.925-74.775a8.165 8.165 0 0 1 7.755-5.591H256a8.084 8.084 0 0 0 8.084-8.085zM63.057 204.8h-1.078a8.084 8.084 0 0 0 0 16.168h1.078a8.084 8.084 0 0 0 0-16.168z"/><path d="M160.067 264.084a8.084 8.084 0 0 0 8.084-8.084 8.084 8.084 0 0 0-8.084-8.084h-1.078a8.084 8.084 0 0 0-8.084 8.084 8.084 8.084 0 0 0 8.084 8.084h1.078z"/></svg>