<svg fill="#5882bf" xmlns="http://www.w3.org/2000/svg" viewBox="0 0 480 480"><path d="M416 160c-17.648 0-32 14.352-32 32v8c0 4.424 3.584 8 8 8h16v40c0 13.232-10.768 24-24 24 0-19.312-13.768-35.472-32-39.192V40c0-22.056-17.944-40-40-40H168c-22.056 0-40 17.944-40 40v192.808c-18.232 3.72-32 19.872-32 39.192-13.232 0-24-10.768-24-24v-40h16c4.416 0 8-3.576 8-8v-8c0-17.648-14.352-32-32-32s-32 14.352-32 32v8c0 4.424 3.584 8 8 8h16v40c0 22.056 17.944 40 40 40v16c0 4.424 3.584 8 8 8h104v48c0 4.424 3.584 8 8 8h16v24h-80c-22.056 0-40 17.944-40 40v1.472c-9.288 3.312-16 12.112-16 22.528 0 13.232 10.768 24 24 24s24-10.768 24-24c0-10.416-6.712-19.216-16-22.528V432c0-13.232 10.768-24 24-24h80v25.472c-9.288 3.312-16 12.112-16 22.528 0 13.232 10.768 24 24 24s24-10.768 24-24c0-10.416-6.712-19.216-16-22.528V408h80c13.232 0 24 10.768 24 24v1.472c-9.288 3.312-16 12.112-16 22.528 0 13.232 10.768 24 24 24s24-10.768 24-24c0-10.416-6.712-19.216-16-22.528V432c0-22.056-17.944-40-40-40h-80v-24h16c4.416 0 8-3.576 8-8v-48h104c4.416 0 8-3.576 8-8v-16c22.056 0 40-17.944 40-40v-40h16c4.416 0 8-3.576 8-8v-8c0-17.648-14.352-32-32-32zM48 192c0-8.824 7.176-16 16-16s16 7.176 16 16H48zm72 272c-4.408 0-8-3.584-8-8s3.592-8 8-8 8 3.584 8 8-3.592 8-8 8zm240-16c4.408 0 8 3.584 8 8s-3.592 8-8 8c-4.408 0-8-3.584-8-8s3.592-8 8-8zM144 40c0-13.232 10.768-24 24-24h144c13.232 0 24 10.768 24 24v96H144V40zm0 112h192v16H144v-16zm0 32h192v16H144v-16zm0 32h192v16H144v-16zm96 248c-4.408 0-8-3.584-8-8s3.592-8 8-8 8 3.584 8 8-3.592 8-8 8zm16-112h-32v-40h32v40zm112-56H112v-24c0-13.232 10.768-24 24-24h208c13.232 0 24 10.768 24 24v24zm32-104c0-8.824 7.176-16 16-16s16 7.176 16 16h-32z"/><path d="M96 344h16v16H96zm-32 0h16v16H64zm-32 0h16v16H32zm400 0h16v16h-16zm-32 0h16v16h-16zm-32 0h16v16h-16z"/></svg>