<svg fill="#5882bf" xmlns="http://www.w3.org/2000/svg" viewBox="0 0 511.795 511.795"><path d="M307.098 179.004a8.53 8.53 0 0 0 8.533 8.533h85.333c4.719 0 8.533-3.823 8.533-8.533s-3.814-8.533-8.533-8.533h-85.333a8.53 8.53 0 0 0-8.533 8.533zm51.2 51.2a8.53 8.53 0 0 0 8.533 8.533h51.2c4.719 0 8.533-3.823 8.533-8.533s-3.814-8.533-8.533-8.533h-51.2a8.53 8.53 0 0 0-8.533 8.533zm-8.534-93.867a8.53 8.53 0 0 0 8.533-8.533 8.53 8.53 0 0 0-8.533-8.533h-17.067a8.53 8.53 0 0 0-8.533 8.533 8.53 8.53 0 0 0 8.533 8.533h17.067zm-102.4 85.333c-4.719 0-8.533 3.823-8.533 8.533s3.814 8.533 8.533 8.533h85.333c4.719 0 8.533-3.823 8.533-8.533s-3.814-8.533-8.533-8.533h-85.333zm42.667 238.934H127.898c-14.114 0-25.6-11.486-25.6-25.6V42.47a8.53 8.53 0 0 0-8.533-8.533c-23.526 0-42.667 19.14-42.667 42.667 0 4.71 3.814 8.533 8.533 8.533s8.533-3.823 8.533-8.533c0-11.128 7.134-20.617 17.067-24.141v382.541c0 23.526 19.14 42.667 42.667 42.667h162.133c4.719 0 8.533-3.823 8.533-8.533s-3.814-8.534-8.533-8.534z"/><path d="M162.031 187.537h119.467c4.719 0 8.533-3.823 8.533-8.533s-3.814-8.533-8.533-8.533H162.031c-4.719 0-8.533 3.823-8.533 8.533s3.814 8.533 8.533 8.533zm0-51.2h34.133a8.53 8.53 0 0 0 8.533-8.533 8.53 8.53 0 0 0-8.533-8.533h-34.133a8.53 8.53 0 0 0-8.533 8.533 8.53 8.53 0 0 0 8.533 8.533zm136.533-17.067h-68.267a8.53 8.53 0 0 0-8.533 8.533 8.53 8.53 0 0 0 8.533 8.533h68.267a8.53 8.53 0 0 0 8.533-8.533 8.53 8.53 0 0 0-8.533-8.533z"/><path d="M418.031 0H93.764c-42.249 0-76.638 34.295-76.8 76.501v.401c.111 27.213 14.797 52.565 38.391 66.219a8.54 8.54 0 0 0 11.656-3.106c2.372-4.079.964-9.301-3.106-11.657-18.397-10.658-29.84-30.438-29.874-51.66.06-32.888 26.829-59.631 59.733-59.631h324.267c32.93 0 59.733 26.795 59.733 59.733v358.4c0 4.326-1.212 8.67-3.49 12.544-2.381 4.062-1.033 9.293 3.029 11.682a8.486 8.486 0 0 0 4.318 1.178 8.52 8.52 0 0 0 7.364-4.207c3.823-6.494 5.845-13.824 5.845-21.197V76.8C494.831 34.449 460.382 0 418.031 0z"/><path d="M443.631 392.337c0-28.237-22.963-51.2-51.2-51.2-28.237 0-51.2 22.963-51.2 51.2 0 28.237 22.963 51.2 51.2 51.2 28.237 0 51.2-22.963 51.2-51.2zm-51.2 34.133c-18.825 0-34.133-15.309-34.133-34.133s15.309-34.133 34.133-34.133c18.825 0 34.133 15.309 34.133 34.133s-15.308 34.133-34.133 34.133zm-15.403 25.609c-4.07-2.355-9.293-.956-11.657 3.123l-18.372 31.838-2.918-4.403a8.489 8.489 0 0 0-6.605-3.814l-5.274-.316 18.68-32.341c2.355-4.079.956-9.301-3.123-11.657-4.079-2.364-9.301-.964-11.665 3.123l-25.574 44.297c-1.476 2.56-1.519 5.709-.12 8.311s4.045 4.301 7.006 4.471l14.788.887 8.166 12.365a8.52 8.52 0 0 0 7.117 3.831h.265a8.576 8.576 0 0 0 7.134-4.267l25.284-43.793c2.355-4.077.956-9.3-3.132-11.655zm71.962-14.046c-2.364-4.087-7.595-5.487-11.657-3.123-4.087 2.355-5.487 7.578-3.132 11.656l18.458 31.94-5.274.316a8.569 8.569 0 0 0-6.613 3.814l-2.901 4.403-18.278-31.676c-2.372-4.079-7.595-5.478-11.665-3.123-4.079 2.355-5.478 7.578-3.123 11.657l25.19 43.631a8.576 8.576 0 0 0 7.134 4.267h.265a8.56 8.56 0 0 0 7.125-3.831l8.158-12.356 14.78-.896c2.961-.171 5.606-1.869 7.006-4.471s1.348-5.751-.119-8.311l-25.354-43.897zM162.031 238.737h51.2c4.719 0 8.533-3.823 8.533-8.533s-3.814-8.533-8.533-8.533h-51.2c-4.719 0-8.533 3.823-8.533 8.533s3.814 8.533 8.533 8.533zm0 51.2h102.4c4.719 0 8.533-3.823 8.533-8.533s-3.814-8.533-8.533-8.533h-102.4c-4.719 0-8.533 3.823-8.533 8.533s3.814 8.533 8.533 8.533zm.904 106.214c2.099 4.215 7.228 5.922 11.443 3.823 4.215-2.108 5.931-7.236 3.814-11.452-8.448-16.896-10.342-32.051-5.086-40.559 2.799-4.531 7.68-6.827 14.524-6.827 4.07 0 5.589 1.399 6.545 2.765 6.357 9.165.316 37.077-6.007 53.973a8.54 8.54 0 0 0 3.379 10.172 8.56 8.56 0 0 0 10.65-1.143 204.463 204.463 0 0 1 11.034-10.206v4.173a8.514 8.514 0 0 0 5.265 7.876 8.518 8.518 0 0 0 9.301-1.843c3.9-3.891 8.422-7.706 12.228-10.453-.102.213-.205.418-.307.614a8.563 8.563 0 0 0 .393 8.294 8.553 8.553 0 0 0 7.253 4.045h34.133c4.719 0 8.533-3.823 8.533-8.533s-3.814-8.533-8.533-8.533h-22.212c.691-4.062.521-8.192-1.536-11.52-2.176-3.524-5.965-5.547-10.385-5.547-5.274 0-11.477 3.208-17.143 7.185-.435-3.721-2.637-6.784-5.982-8.166-2.278-.939-5.214-2.167-12.339 2.108 2.807-14.703 3.627-31.65-3.695-42.214-3.2-4.617-9.361-10.112-20.574-10.112-12.783 0-23.1 5.299-29.047 14.925-8.508 13.772-6.93 34.602 4.351 57.155zm229.496-114.747a8.53 8.53 0 0 0-8.533-8.533h-85.333c-4.719 0-8.533 3.823-8.533 8.533s3.814 8.533 8.533 8.533h85.333a8.53 8.53 0 0 0 8.533-8.533z"/></svg>