<svg xmlns="http://www.w3.org/2000/svg" viewBox="0 0 512 512" fill="#13ccbb"><path d="M334.66 320.105a7.5 7.5 0 0 0-7.5 7.5v12.451a7.5 7.5 0 0 0 7.5 7.5 7.5 7.5 0 0 0 7.5-7.5v-12.451a7.5 7.5 0 0 0-7.5-7.5zm-161.313 0a7.5 7.5 0 0 0-7.5 7.5v12.451a7.5 7.5 0 0 0 7.5 7.5 7.5 7.5 0 0 0 7.5-7.5v-12.451a7.5 7.5 0 0 0-7.5-7.5zm111.563 12.104c-4.044-4.13-9.936-4.625-14.015-4.638l-.025-.001h-33.758c-4.079.013-9.971.508-14.014 4.638-1.753 1.791-3.823 4.999-3.731 10.113.651 36.185 13.276 56.938 34.637 56.939 21.358 0 33.983-20.754 34.637-56.938.092-5.114-1.979-8.322-3.731-10.113zm-30.906 52.05c-6.477 0-10.828-4.273-13.754-10.258 3.862-2.141 8.714-3.359 13.754-3.359 5.039 0 9.891 1.218 13.753 3.359-2.926 5.985-7.277 10.258-13.753 10.258zm18.097-24.842c-5.439-2.443-11.65-3.775-18.097-3.775-6.447 0-12.658 1.331-18.098 3.775-1.062-6.182-1.424-12.286-1.526-16.658.575-.096 1.456-.185 2.757-.189h33.724c1.308.005 2.191.094 2.768.19-.103 4.372-.466 10.475-1.528 16.657zM501.717 37.473c-5.963-6.532-14.161-10.241-23.084-10.443-6.743-.162-13.348 1.778-18.925 5.416-5.578-3.638-12.183-5.57-18.926-5.416-8.923.203-17.12 3.912-23.083 10.443-7.939 8.697-11.309 18.359-10.013 28.718 2.723 21.771 26.237 40.229 40.012 49.294a21.823 21.823 0 0 0 24.019 0c13.774-9.064 37.289-27.522 40.013-49.294 1.295-10.358-2.074-20.021-10.013-28.718zm-4.871 26.857c-.684 5.459-5.303 20.151-33.375 38.625a6.84 6.84 0 0 1-7.526 0c-28.073-18.475-32.691-33.167-33.374-38.625-.736-5.885 1.294-11.362 6.207-16.744 3.174-3.477 7.559-5.452 12.346-5.561a18.29 18.29 0 0 1 13.282 5.326c1.406 1.407 3.313 2.197 5.303 2.197s3.896-.791 5.304-2.197c3.497-3.498 8.354-5.451 13.28-5.326 4.788.109 9.173 2.083 12.347 5.561 4.912 5.381 6.941 10.858 6.206 16.744zM61.094 140.909c-4.096-4.487-9.724-7.035-15.846-7.174-3.96-.097-7.83.867-11.263 2.708-3.434-1.842-7.331-2.805-11.263-2.708-6.121.14-11.749 2.688-15.845 7.174-5.253 5.754-7.569 12.473-6.699 19.43 1.674 13.39 14.529 24.43 25.02 31.334a15.972 15.972 0 0 0 17.574 0c10.49-6.903 23.346-17.943 25.021-31.333.87-6.959-1.446-13.678-6.699-19.431zm-8.186 17.568c-.731 5.846-7.604 13.571-18.383 20.665a.982.982 0 0 1-1.082 0c-10.779-7.095-17.651-14.82-18.381-20.665-.202-1.619-.123-4.152 2.894-7.456 1.308-1.433 3.122-2.246 5.108-2.292l.172-.002c2.03 0 4.007.816 5.445 2.255a7.5 7.5 0 0 0 10.607 0 7.717 7.717 0 0 1 5.618-2.253c1.986.045 3.801.859 5.108 2.292 3.016 3.304 3.096 5.837 2.894 7.456z"/><path d="M447.693 276.914c1.953-21.494 1.958-42.306-.008-62.057a7.5 7.5 0 0 0-14.926 1.485c2.914 29.297.655 56.835-1.754 74.777-1.205 8.979-5.846 16.926-13.068 22.378-7.077 5.343-15.777 7.589-24.47 6.325-23.507-3.413-42.518-14.161-56.502-31.945-10.643-13.535-27.735-20.568-44.607-18.347-50.176 6.597-73.477-17.018-84.186-37.989-5.818-11.395-15.818-20.235-28.157-24.893-21.498-8.114-34.979-24.377-40.067-48.337-3.214-15.13-1.99-28.869-1.398-33.608 4.939-6.102 25.887-30.43 58.763-47.586 21.849-11.402 44.676-17.468 67.845-18.03 29.035-.706 58.824 7.273 88.574 23.708 37.605 20.773 62.367 54.788 73.595 101.096a7.5 7.5 0 0 0 9.057 5.521 7.5 7.5 0 0 0 5.521-9.056c-12.261-50.561-39.486-87.803-80.92-110.691-32.239-17.809-64.73-26.404-96.565-25.564-25.546.679-50.639 7.407-74.579 19.997-36.209 19.041-58.395 45.396-63.385 51.701-30.829 16.619-50.883 44.636-59.602 83.319-6.015 26.687-5.547 54.186-3.325 75.983a58.158 58.158 0 0 0-31.491 51.755c0 25.661 15.955 49.84 40.933 55.633 5.361 1.243 8.39-1.721 9.389-4.934a7.5 7.5 0 0 0-4.934-9.389c-18.176-5.653-30.388-22.254-30.388-41.31a43.18 43.18 0 0 1 18.597-35.548c1.955 10.971 8.266 20.546 17.546 26.647.976 44.027 18.691 85.387 50.139 116.835 32.363 32.363 75.222 50.187 120.683 50.187 24.229 0 47.681-5.03 69.706-14.95a7.5 7.5 0 0 0-6.16-13.676c-20.076 9.042-41.457 13.627-63.548 13.627-41.454 0-80.545-16.263-110.075-45.793-27.169-27.169-43.096-62.435-45.471-100.184 2.256.391 11.538 1.563 20.601-1.825 45.06-16.847 71.66-52.969 82.904-72.082 12.147 16.929 34.482 35.564 73.967 35.562 5.755 0 11.88-.396 18.385-1.251 11.647-1.528 23.476 3.353 30.861 12.747 11.305 14.375 31.943 32.638 66.137 37.518 9.609 1.371 13.882.108 17.258-.647-5.747 43.965-30.518 84.247-67.841 109.415a7.5 7.5 0 1 0 8.388 12.437c26.58-17.924 47.351-42.854 60.368-71.346 2.719.385 64.602 4.361 66.484-57.667.62-20.432-10.945-39.499-28.274-49.948zm-333.759 31.163a25.155 25.155 0 0 1-21.516-2.023c-6.57-3.902-10.995-10.481-12.14-18.048-13.795-91.178 16.461-133.232 42.54-152.222-.076 6.988.412 15.774 2.353 25.138 6.039 29.14 23.173 49.805 49.55 59.761 7.662 2.892 14.039 7.996 18.285 14.555-6.357 12.308-31.527 55.553-79.072 72.839zm347.034 18.779c-2.147 43.091-44.855 43.223-45.653 43.179 4.814-13.715 7.894-28.069 9.038-42.728.889-.584 17.295-10.623 21.386-33.346 9.472 8.123 15.864 20.157 15.229 32.895z"/></svg>