<svg xmlns="http://www.w3.org/2000/svg" viewBox="0 0 512.001 512.001"><path d="M292.323 275.983a7.842 7.842 0 0 0-10.871-2.192c-3.683 2.447-12.981 4.916-25.449 4.916-12.47 0-21.767-2.47-25.45-4.916-3.607-2.398-8.474-1.417-10.871 2.191s-1.419 8.474 2.188 10.871c7.102 4.721 19.862 7.539 34.132 7.539 14.268 0 27.027-2.818 34.13-7.538a7.843 7.843 0 0 0 2.191-10.871zm-61.847-91.454c-6.126-5.008-17.034-7.999-29.178-7.999-12.144 0-23.051 2.989-29.177 7.998a7.843 7.843 0 0 0 9.927 12.143c2.625-2.147 9.769-4.456 19.25-4.456s16.624 2.31 19.25 4.456a7.816 7.816 0 0 0 4.959 1.77 7.842 7.842 0 0 0 4.969-13.912z"/><circle cx="201.301" cy="216.963" r="13.418"/><path d="M339.88 184.528c-6.125-5.008-17.033-7.998-29.178-7.998s-23.051 2.99-29.178 7.999a7.842 7.842 0 0 0 4.969 13.913 7.81 7.81 0 0 0 4.959-1.771c2.625-2.147 9.769-4.456 19.25-4.456s16.624 2.31 19.25 4.456a7.843 7.843 0 0 0 9.928-12.143z"/><circle cx="310.702" cy="216.963" r="13.418"/><path d="M432.5 501.214c-19.588-48.335-58.678-86.939-107.321-105.944 0 0-.738-.28-.751-.283a189.745 189.745 0 0 0-23.355-7.299V356.04a129.712 129.712 0 0 0 18.471-8.536c69.58-.293 102.961-15.542 104.359-16.197a7.843 7.843 0 0 0 4.143-4.73 7.857 7.857 0 0 0-.66-6.257c-.177-.31-17.147-30.628-19.904-74.831 8.552-7.868 13.921-19.144 13.921-31.653 0-12.683-5.536-24.109-14.315-31.994v-30.75C407.088 67.778 339.31 0 255.998 0c-29.879 0-58.779 8.717-83.573 25.21a7.841 7.841 0 0 0-2.186 10.872 7.84 7.84 0 0 0 10.872 2.186c22.216-14.774 48.11-22.584 74.889-22.584 74.664 0 135.406 60.742 135.406 135.406v21.724c-.607-.193-1.225-.353-1.841-.519a43.587 43.587 0 0 0-3.575-.817c-.012-.151-.03-.3-.043-.451-.33-4.167-.863-8.313-1.591-12.428a141.334 141.334 0 0 0-.768-4.026c-.819-3.966-2.424-7.605-6.901-8.328-16.419-2.651-31.946-6.323-46.15-10.914a7.844 7.844 0 0 0-9.874 5.05c-1.315 4.073.987 8.561 5.051 9.875 13.403 4.332 27.885 7.88 43.124 10.568 2.09.436 1.846 19.022 1.846 20.605v52.275c0 28.74-11.321 57.327-31.185 78.528-.558.596-1.127 1.18-1.698 1.765-13.545 13.796-30.538 24.191-49.571 29.774a115.324 115.324 0 0 1-32.229 4.617c-10.912 0-21.641-1.674-32.138-4.59-19.197-5.614-36.322-16.122-49.933-30.078-17.114-17.55-28.545-40.872-31.667-65.353-.62-4.863-.944-9.758-.944-14.66v-52.275c0-6.382.527-12.766 1.583-19.06.079-.472.811-5.703 1.11-5.73 25.29-2.231 48.363-18.143 67.059-46.356 6.792-10.25 11.919-20.458 15.503-28.579 9.692 14.936 29.226 37.258 66.275 55.38a7.843 7.843 0 0 0 6.892-14.09c-7.709-3.77-15.021-8.13-22.219-12.787l-.312-.21c-34.347-23.292-43.702-48.193-44.219-49.633a7.84 7.84 0 0 0-7.479-5.474h-.06a7.844 7.844 0 0 0-7.432 5.523c-.25.808-25.68 80.815-80.216 80.815a7.843 7.843 0 0 0-7.565 5.775c-1.829 6.696-3.953 14.363-3.953 21.36a128.904 128.904 0 0 0-.274 3.113c-.005.073-1.766.374-1.907.407-1.177.27-2.358.563-3.51.927V151.09c0-35.121 13.392-68.415 37.71-93.749A7.842 7.842 0 1 0 146.99 46.48c-27.136 28.27-42.079 65.42-42.079 104.611v30.746c-8.779 7.886-14.315 19.311-14.315 31.997 0 12.509 5.37 23.784 13.921 31.653-2.757 44.203-19.727 74.521-19.899 74.82a7.84 7.84 0 0 0 3.478 10.998c1.399.656 34.78 15.906 104.361 16.197a129.735 129.735 0 0 0 18.469 8.535v31.648a189.743 189.743 0 0 0-23.411 7.319c-19.357 7.467-37.304 18.031-53.343 31.403a7.843 7.843 0 0 0 10.043 12.047c12.611-10.515 26.507-19.138 41.394-25.699 8.452 20.81 26.18 36.976 47.521 43.852 7.343 2.366 15.155 3.553 22.87 3.553 22.968 0 45.538-10.987 59.702-29.056 4.309-5.497 7.894-11.569 10.552-18.031.045-.108.094-.213.138-.322 37.791 16.669 68.7 46.488 86.766 83.565H98.842c6.406-13.157 14.464-25.474 24.042-36.734a7.84 7.84 0 0 0-.894-11.052 7.843 7.843 0 0 0-11.054.893c-13.238 15.566-23.815 32.991-31.435 51.792a7.847 7.847 0 0 0 .763 7.328 7.845 7.845 0 0 0 6.504 3.461h338.466a7.841 7.841 0 0 0 7.266-10.79zm-46.232-262.658c.06-1.617.099-3.231.099-4.848v-46.02c11.188 3.429 19.354 13.863 19.354 26.145 0 9.194-4.566 17.336-11.545 22.294-.135.096-.272.187-.408.28a27.122 27.122 0 0 1-7.36 3.553c-.064.02-.13.037-.193.055.024-.486.035-.972.053-1.459zm-42.778 91.718a128.358 128.358 0 0 0 3.771-3.568c18.979-18.627 32.302-42.994 37.118-70.263a42.787 42.787 0 0 0 8.095-1.94c3.043 30.523 11.92 53.784 17.213 65.41-10.671 3.49-32.762 9.226-67.113 11.214.312-.279.608-.573.916-.853zM125.634 187.686v46.021c0 1.617.04 3.231.099 4.846.018.488.029.976.053 1.463-.063-.019-.125-.034-.187-.054a27.351 27.351 0 0 1-7.379-3.563c-.129-.088-.258-.175-.386-.266-6.984-4.957-11.554-13.104-11.554-22.301-.001-12.284 8.165-22.719 19.354-26.146zm-23.349 132.288c5.29-11.605 14.194-34.893 17.241-65.471a42.776 42.776 0 0 0 5.369 1.462l.094.02c.871.177 1.752.338 2.633.459 4.536 25.683 16.616 48.796 33.862 66.961l.134.143a130.822 130.822 0 0 0 7.782 7.558c-31.578-1.871-54.49-6.986-67.115-11.132zm209.422 87.246c-9.232 22.207-31.642 37.256-55.707 37.256-18.685 0-36.645-9.024-47.986-23.833-.786-1.027-8.329-13.371-7.774-13.557a174.724 174.724 0 0 1 20.121-5.45 7.843 7.843 0 0 0 6.249-7.678v-33.217c0 2.797 27.619 3.334 29.392 3.334 9.868 0 19.773-1.117 29.39-3.334v33.217a7.84 7.84 0 0 0 6.249 7.678 174.576 174.576 0 0 1 20.121 5.45c-.02.043-.037.089-.055.134z"/></svg>