<svg viewBox="0 0 512.002 512.002"><path d="M508.417 77.393c-7.717-14.15-25.508-19.383-39.66-11.665l-130.641 71.259c-11.839 6.457-20.455 17.139-24.261 30.078-3.235 10.998-2.647 22.503 1.567 32.979H196.56c4.212-10.476 4.801-21.982 1.567-32.979-3.805-12.939-12.422-23.621-24.261-30.078L43.224 65.728c-14.15-7.72-31.942-2.486-39.66 11.665-7.717 14.15-2.484 31.94 11.665 39.659l14.473 7.895a29.066 29.066 0 0 0-9.17 10.133c-3.739 6.854-4.584 14.755-2.382 22.246 2.203 7.491 7.192 13.675 14.046 17.413l14.454 7.884a29.103 29.103 0 0 0-9.151 10.143c-3.739 6.855-4.585 14.756-2.382 22.246 2.202 7.491 7.192 13.675 14.046 17.413l39.415 21.5v169.019c0 14.83 12.065 26.896 26.896 26.896H396.51c14.83 0 26.896-12.065 26.896-26.896V253.923l39.414-21.5c6.855-3.738 11.844-9.923 14.047-17.413 2.203-7.491 1.357-15.39-2.381-22.246a29.115 29.115 0 0 0-9.152-10.143l14.454-7.884c6.855-3.738 11.844-9.923 14.047-17.414 2.202-7.491 1.356-15.39-2.382-22.244a29.1 29.1 0 0 0-9.152-10.144l14.455-7.885c6.855-3.738 11.844-9.923 14.047-17.413 2.201-7.492 1.353-15.39-2.386-22.244zM373.785 215.988L255.991 324.72 138.197 215.988h235.588zm-153.252 97.701l-116.011 71.392V226.94c0-5.788 4.518-10.53 10.211-10.914l105.8 97.663zM88.577 226.94v8.821l-31.78-17.336a13.205 13.205 0 0 1-6.385-7.915 13.204 13.204 0 0 1 1.083-10.113 13.2 13.2 0 0 1 7.915-6.384 13.195 13.195 0 0 1 10.089 1.071l.015.007 10.391 5.771a7.97 7.97 0 0 0 10.84-3.1 7.971 7.971 0 0 0-3.1-10.839l-10.437-5.795c-.008-.004-.017-.007-.026-.013l-.028-.017-37.326-20.36c-3.115-1.7-5.383-4.511-6.384-7.916s-.618-6.995 1.082-10.111c3.508-6.432 11.59-8.81 18.021-5.306l.006.003c.039.021.08.037.119.057.039.021.077.046.116.066l50.806 25.551a7.971 7.971 0 0 0 10.704-3.54 7.972 7.972 0 0 0-3.541-10.704L60.07 123.35l-37.206-20.297c-6.432-3.509-8.81-11.595-5.302-18.026 3.509-6.433 11.595-8.81 18.028-5.302l130.641 71.259c8.101 4.419 13.996 11.728 16.6 20.58 2.603 8.852 1.604 18.189-2.814 26.289l-1.196 2.192h-63.348c-14.83-.001-26.896 12.065-26.896 26.895zm318.885 196.002c0 6.048-4.903 10.952-10.952 10.952H115.473c-6.048 0-10.952-4.903-10.952-10.952v-19.139l128.181-78.88 17.882 16.506c1.527 1.409 3.467 2.114 5.407 2.114s3.88-.705 5.407-2.114l17.882-16.506 27.662 17.023a7.972 7.972 0 0 0 9.815-1.152c3.642-3.642 2.926-9.728-1.459-12.427l-23.849-14.677 105.8-97.662c5.693.384 10.211 5.126 10.211 10.914V385.08l-52.18-32.111a7.972 7.972 0 0 0-9.815 1.152c-3.642 3.642-2.926 9.728 1.459 12.427l60.538 37.254v19.14zm88.041-327.803a13.192 13.192 0 0 1-6.385 7.915l-37.213 20.298-50.683 25.489a7.972 7.972 0 0 0 7.164 14.244l50.806-25.551c.043-.021.08-.047.121-.069.037-.02.077-.034.113-.054 6.433-3.506 14.519-1.13 18.028 5.303a13.198 13.198 0 0 1 1.083 10.111 13.195 13.195 0 0 1-6.385 7.916l-37.3 20.347-.027.015c-.011.005-.019.013-.03.018-.007.003-.015.006-.022.011l-10.436 5.795a7.97 7.97 0 0 0-3.099 10.839 7.966 7.966 0 0 0 10.839 3.1l10.381-5.764.003-.001a13.201 13.201 0 0 1 10.112-1.083 13.202 13.202 0 0 1 7.916 6.384 13.203 13.203 0 0 1 1.082 10.113 13.192 13.192 0 0 1-6.385 7.915l-31.779 17.335v-8.82c0-14.83-12.066-26.896-26.896-26.896h-63.348l-1.196-2.192c-4.418-8.1-5.418-17.437-2.814-26.289s8.499-16.161 16.6-20.58l130.64-71.259c6.434-3.506 14.518-1.13 18.028 5.302a13.197 13.197 0 0 1 1.082 10.108z"/></svg>