<svg xmlns="http://www.w3.org/2000/svg" viewBox="0 0 512 512"><path d="M189.043 292.425c-6.198-1.093-12.442.293-17.595 3.901a23.39 23.39 0 0 0-9.682 15.199c-2.254 12.786 6.313 25.022 19.1 27.277 1.378.243 2.747.361 4.099.361 11.206-.001 21.166-8.052 23.177-19.46 2.255-12.787-6.314-25.023-19.099-27.278zm4.301 24.667c-.815 4.625-5.239 7.729-9.866 6.908-4.626-.816-7.725-5.241-6.909-9.866.807-4.571 5.292-7.714 9.867-6.908 4.623.815 7.722 5.241 6.908 9.866zm34.322-59.351c-8.347-9.945-23.228-11.246-33.173-2.902-4.817 4.043-7.773 9.719-8.321 15.985s1.377 12.369 5.42 17.188a23.394 23.394 0 0 0 15.985 8.321c.7.061 1.399.091 2.093.091 5.521 0 10.815-1.92 15.094-5.511 9.945-8.344 11.248-23.225 2.902-33.172zm-12.563 21.661a8.477 8.477 0 0 1-6.216 1.961c-4.626-.405-8.148-4.599-7.742-9.227.379-4.338 4.117-7.77 8.478-7.77a8.505 8.505 0 0 1 6.531 3.038c3.018 3.596 2.547 8.98-1.051 11.998zm87.696 108.478c-2.15-5.912-6.475-10.63-12.174-13.288-5.701-2.658-12.095-2.938-18.004-.787-12.201 4.44-18.514 17.978-14.074 30.18 3.346 9.189 12.311 15.505 22.112 15.505 2.715 0 5.44-.476 8.068-1.433h-.001a23.394 23.394 0 0 0 13.288-12.175 23.387 23.387 0 0 0 .785-18.002zm-14.407 11.65a8.585 8.585 0 0 1-6.348 4.806c-3.988.658-7.995-1.704-9.373-5.493-1.606-4.414.678-9.31 5.091-10.916 4.368-1.592 9.33.733 10.915 5.09a8.47 8.47 0 0 1-.285 6.513zm37.435-128.704a23.394 23.394 0 0 0-8.321-15.985c-9.948-8.345-24.827-7.043-33.173 2.902-8.345 9.946-7.043 24.827 2.903 33.173 4.28 3.591 9.575 5.511 15.094 5.511.694 0 1.394-.03 2.093-.091a23.392 23.392 0 0 0 15.984-8.321 23.394 23.394 0 0 0 5.42-17.189zm-22.713 10.535a8.47 8.47 0 0 1-6.216-1.961c-3.598-3.016-4.069-8.399-1.051-11.996a8.503 8.503 0 0 1 6.532-3.039c4.361 0 8.099 3.432 8.478 7.77.405 4.626-3.119 8.822-7.743 9.226zm-89.198 71.077c-6.493-11.243-20.92-15.109-32.165-8.618a23.388 23.388 0 0 0-10.971 14.298 23.39 23.39 0 0 0 2.354 17.867c3.144 5.448 8.222 9.343 14.297 10.971 2.029.543 4.087.813 6.133.813 4.079 0 8.107-1.07 11.735-3.165 11.242-6.492 15.108-20.922 8.617-32.166zm-16.134 19.149a8.463 8.463 0 0 1-6.463.851c-4.48-1.199-7.226-5.944-6.023-10.431.985-3.672 4.402-6.31 8.212-6.31a8.522 8.522 0 0 1 7.39 4.256c2.35 4.067.951 9.286-3.116 11.634zM256 232.454c-12.983 0-23.546 10.563-23.546 23.546s10.563 23.546 23.546 23.546 23.546-10.563 23.546-23.546-10.563-23.546-23.546-23.546zm0 32.063c-4.696 0-8.517-3.82-8.517-8.517s3.82-8.517 8.517-8.517 8.517 3.82 8.517 8.517-3.821 8.517-8.517 8.517z"/><path d="M256 208.407c-66.022 0-119.734 53.712-119.734 119.734S189.978 447.875 256 447.875s119.734-53.712 119.734-119.734S322.022 208.407 256 208.407zm0 224.438c-57.734 0-104.705-46.97-104.705-104.705S198.266 223.436 256 223.436s104.705 46.97 104.705 104.704c0 57.736-46.971 104.705-104.705 104.705z"/><path d="M350.234 311.525a23.388 23.388 0 0 0-9.682-15.199 23.397 23.397 0 0 0-17.594-3.901c-12.787 2.253-21.355 14.49-19.1 27.276 2.011 11.409 11.97 19.46 23.177 19.46a23.57 23.57 0 0 0 4.099-.36h.001c12.786-2.253 21.353-14.49 19.099-27.276zm-21.71 12.476h.001c-4.634.82-9.051-2.283-9.867-6.909-.815-4.625 2.284-9.051 6.91-9.866.499-.087 1-.131 1.497-.131 4.078 0 7.662 3.034 8.369 7.04.814 4.625-2.284 9.05-6.91 9.866zm-89.144 49.804a23.394 23.394 0 0 0-18.005.786c-5.699 2.658-10.024 7.376-12.174 13.286-2.15 5.911-1.872 12.304.786 18.004a23.39 23.39 0 0 0 13.287 12.175 23.55 23.55 0 0 0 8.068 1.433c3.393 0 6.772-.742 9.937-2.218a23.393 23.393 0 0 0 12.175-13.287c4.439-12.201-1.875-25.739-14.074-30.179zm-.051 25.04c-1.585 4.357-6.55 6.68-10.917 5.089-4.357-1.586-6.678-6.549-5.089-10.916 1.209-3.323 4.454-5.608 7.997-5.608 5.824 0 9.995 5.976 8.009 11.435zm101.892-40.729a23.401 23.401 0 0 0-10.972-14.297c-11.244-6.492-25.673-2.625-32.165 8.619-6.492 11.243-2.625 25.672 8.619 32.164 11.127 6.425 25.754 2.483 32.165-8.618a23.392 23.392 0 0 0 2.353-17.868zm-15.37 10.354c0 .324-.635.961-.838 1.203-.37.444-.785.851-1.237 1.21a8.56 8.56 0 0 1-3.096 1.555 8.463 8.463 0 0 1-6.463-.851c-4.067-2.349-5.465-7.568-3.117-11.634a8.524 8.524 0 0 1 7.39-4.257c3.811 0 7.228 2.638 8.212 6.31a8.457 8.457 0 0 1-.851 6.464zM256 288.564c-21.823 0-39.577 17.755-39.577 39.577 0 21.823 17.755 39.577 39.577 39.577s39.577-17.755 39.577-39.577c0-21.823-17.754-39.577-39.577-39.577zm0 64.125c-13.536 0-24.548-11.013-24.548-24.548 0-13.535 11.012-24.548 24.548-24.548s24.548 11.013 24.548 24.548c0 13.535-11.012 24.548-24.548 24.548z"/><path d="M433.719 56.145c-.146-.1-.293-.202-.448-.295-22.493-13.195-49.015-23.259-78.828-29.913-4.049-.909-8.067 1.646-8.972 5.697a7.515 7.515 0 0 0 5.698 8.971c20.963 4.679 40.15 11.107 57.289 19.168-23.689 7.463-42.632 25.717-51.044 48.973a1233.054 1233.054 0 0 0-63.75-3.881 1098.477 1098.477 0 0 0-37.665-.661c-11.831 0-24.051.207-36.323.615a1229.89 1229.89 0 0 0-48.376 2.59c-5.553.406-11.158.859-16.716 1.337-8.413-23.26-27.362-41.518-51.06-48.978C143.944 40.711 195.122 31.061 256 31.061c22.409 0 43.807 1.337 63.597 3.973a7.518 7.518 0 0 0 8.441-6.457 7.517 7.517 0 0 0-6.457-8.442c-20.446-2.723-42.512-4.104-65.582-4.104-71.932 0-131.172 13.163-176.075 39.123a7.534 7.534 0 0 0-1.328.982C35.163 56.708 0 92.198 0 135.765v32.063a7.515 7.515 0 0 0 7.515 7.515h144.282a7.515 7.515 0 0 0 7.515-7.515v-32.063c0-4.167-.325-8.26-.945-12.256 3.32-.279 6.639-.545 9.962-.799v73.159l-63.037 42.025c-20.759 13.837-33.151 36.993-33.151 61.941v164.571a7.515 7.515 0 0 0 7.515 7.515h16.532v16.532a7.515 7.515 0 0 0 7.515 7.515h48.094a7.515 7.515 0 0 0 7.515-7.515v-16.532H352.69v16.532a7.515 7.515 0 0 0 7.515 7.515h48.094a7.515 7.515 0 0 0 7.515-7.515v-16.532h16.532a7.515 7.515 0 0 0 7.515-7.515V297.481c0-23.307-11.132-45.571-29.778-59.556l-66.41-49.807V122.71c3.31.253 6.63.519 9.962.8a79.906 79.906 0 0 0-.945 12.256v32.063a7.515 7.515 0 0 0 7.515 7.515h144.282a7.515 7.515 0 0 0 7.515-7.515v-32.063c-.002-43.462-34.994-78.883-78.283-79.621zM79.656 71.139c33.095 0 60.459 25.002 64.191 57.112H15.464c3.732-32.11 31.097-57.112 64.192-57.112zm64.626 89.174H15.029V143.28h129.252v17.033zm78.821-40.558a1074.91 1074.91 0 0 1 32.897-.522c10.615 0 21.551.179 32.564.513v32.552h-65.461v-32.543zm-78.821 361.184h-33.065v-9.018h33.065v9.018zm256.501 0h-33.065v-9.018h33.065v9.018zm.28-230.991c14.882 11.162 23.766 28.931 23.766 47.533v159.411H87.17V299.836a59.297 59.297 0 0 1 26.458-49.438l66.384-44.255a7.512 7.512 0 0 0 3.346-6.252v-78.24c8.303-.533 16.563-.984 24.715-1.342v39.503a7.515 7.515 0 0 0 7.515 7.515h80.49a7.515 7.515 0 0 0 7.515-7.515v-39.514c8.262.36 16.629.808 25.049 1.349v70.228a7.513 7.513 0 0 0 3.006 6.012l69.415 52.061zm31.281-178.809c33.095 0 60.459 25.002 64.191 57.112H368.153c3.732-32.11 31.097-57.112 64.191-57.112zm64.627 89.174H367.718V143.28H496.97v17.033z"/></svg>