<svg xmlns="http://www.w3.org/2000/svg" viewBox="0 0 512 512"><path d="M446 0H66C29.607 0 0 29.607 0 66v380c0 36.393 29.607 66 66 66h380c36.393 0 66-29.607 66-66V66c0-36.393-29.607-66-66-66zm46 446c0 25.364-20.636 46-46 46H66c-25.364 0-46-20.636-46-46V66c0-25.364 20.636-46 46-46h380c25.364 0 46 20.636 46 46v380z"/><path d="M412.446 210.188c-.001 0-.001-.001 0 0-14.16-16.25-33.791-24.489-58.351-24.489-17.689 0-33.058 3.65-45.683 10.849-6.079 3.47-12.121 8.055-18.083 13.718v-9.537c0-5.523-4.478-10-10-10h-72.805c-5.522 0-10 4.477-10 10v222.519c0 5.523 4.478 10 10 10h72.268c5.522 0 10-4.477 10-10V297.061c0-16.801 12.339-30.639 28.092-31.503l2.549-.14c6.168-.332 12.128 1.889 16.76 6.274 5.039 4.769 7.929 11.626 7.929 18.813v132.742c0 5.523 4.478 10 10 10h68.128c5.522 0 10-4.477 10-10.002V281.814c0-31.679-7-55.778-20.804-71.626zm.804 203.059h-48.129V290.505c0-12.656-5.168-24.807-14.18-33.338-8.663-8.2-19.892-12.367-31.605-11.719l-2.549.14c-26.352 1.446-46.995 24.056-46.995 51.473v116.185h-52.268V210.728h52.805v26.248a10 10 0 0 0 18.058 5.923c9.996-13.597 20.069-23.348 29.937-28.979 9.565-5.455 21.6-8.221 35.771-8.221 18.783 0 32.936 5.766 43.27 17.627l-.001-.001c10.541 12.102 15.886 31.781 15.886 58.491v131.431zM165.879 190.729H93.074c-5.522 0-10 4.477-10 10V284c0 5.523 4.478 10 10 10s10-4.477 10-10v-73.271h52.805v202.518h-52.805V369c0-5.523-4.478-10-10-10s-10 4.477-10 10v54.247c0 5.523 4.478 10 10 10h72.805c5.522 0 10-4.477 10-10V200.729c0-5.523-4.478-10-10-10z"/><path d="M100.149 321.93a10.096 10.096 0 0 0-7.08-2.93c-2.63 0-5.21 1.07-7.069 2.93-1.861 1.86-2.931 4.44-2.931 7.07s1.071 5.21 2.931 7.07a10.072 10.072 0 0 0 7.069 2.93c2.641 0 5.211-1.07 7.08-2.93 1.861-1.86 2.931-4.44 2.931-7.07s-1.071-5.21-2.931-7.07zm29.328-243.177c-27.971 0-50.727 22.756-50.727 50.727s22.756 50.727 50.727 50.727 50.728-22.756 50.728-50.727-22.756-50.727-50.728-50.727zm0 81.454c-16.943 0-30.727-13.784-30.727-30.727s13.785-30.727 30.727-30.727c16.943 0 30.728 13.784 30.728 30.727s-13.785 30.727-30.728 30.727zM388.636 48h-81.5c-5.522 0-10 4.477-10 10s4.478 10 10 10h81.5c5.522 0 10-4.477 10-10s-4.478-10-10-10zm-126.881 0h-.119c-5.522 0-10 4.477-10 10s4.478 10 10 10h.119c5.522 0 10-4.477 10-10s-4.478-10-10-10z"/></svg>