<svg xmlns="http://www.w3.org/2000/svg" viewBox="0 0 512 512"><path d="M462 66H50C22.43 66 0 88.43 0 116v280c0 27.57 22.43 50 50 50h412c27.57 0 50-22.43 50-50V116c0-27.57-22.43-50-50-50zm-11.197 20l-34 34H241.254c-5.523 0-10 4.478-10 10s4.477 10 10 10h155.549l-28 28h-73.976c-5.523 0-10 4.478-10 10s4.477 10 10 10h53.976l-48.901 48.901c-24.208 24.207-63.596 24.207-87.804 0L61.197 86h389.606zM462 426H50a29.813 29.813 0 0 1-13.703-3.326l47.629-47.629c3.905-3.905 3.905-10.237 0-14.142a9.968 9.968 0 0 0-7.071-2.929 9.97 9.97 0 0 0-7.071 2.929L22.567 408.12A29.82 29.82 0 0 1 20 396V116c0-11.61 6.634-21.693 16.306-26.678.211.258.437.509.678.75L188.8 241.887l-63.146 63.146c-3.905 3.905-3.905 10.237 0 14.143 3.905 3.906 10.237 3.905 14.143 0l63.374-63.375c30.431 25.635 75.228 25.635 105.66 0l166.873 166.874A29.832 29.832 0 0 1 462 426zm30-30a29.82 29.82 0 0 1-2.567 12.12L323.201 241.886 475.017 90.071c.241-.241.466-.491.678-.75C485.366 94.307 492 104.39 492 116v280z"/><path d="M207.4 122.931a10.055 10.055 0 0 0-7.07-2.931c-2.63 0-5.21 1.07-7.07 2.931-1.86 1.859-2.93 4.439-2.93 7.069s1.07 5.21 2.93 7.07 4.44 2.93 7.07 2.93c2.64 0 5.21-1.069 7.07-2.93 1.87-1.86 2.93-4.44 2.93-7.07s-1.06-5.21-2.93-7.069zM112.96 331.87a10.081 10.081 0 0 0-7.08-2.93c-2.63 0-5.2 1.07-7.07 2.93a10.066 10.066 0 0 0-2.92 7.07c0 2.64 1.06 5.21 2.92 7.07a10.05 10.05 0 0 0 7.07 2.93c2.64 0 5.22-1.06 7.08-2.93 1.86-1.86 2.92-4.43 2.92-7.07 0-2.63-1.06-5.21-2.92-7.07z"/></svg>