<svg xmlns="http://www.w3.org/2000/svg" fill="#fff" viewBox="0 0 512 512"><path d="M65.826 170.317c4.523 1.323 9.259-1.28 10.573-5.811 25.276-86.81 106.146-147.439 196.668-147.439 14.49 0 28.894 1.51 42.923 4.506-.307 12.279 4.992 20.702 8.405 26.112.947 1.502 2.236 3.55 2.389 3.831 0 30.601-6.255 35.584-6.187 35.601-13.833 0-36.531 12.356-45.065 28.288-5.239 9.771-4.813 20.113 1.186 29.124 4.113 6.17 7.654 13.03 11.085 19.669 7.253 14.046 15.3 29.628 27.938 29.628 2.671 0 5.555-.7 8.678-2.261 9.95-4.975 17.084-19.123 23.979-32.794 3.038-6.025 7.501-14.865 10.146-17.673 8.661 1.178 12.894 9.011 18.62 21.419 4.215 9.131 8.576 18.56 17.143 22.844 14.421 7.211 61.841-.341 88.047-11.469a8.534 8.534 0 0 0 4.898-10.078c-17.911-66.219-66.56-121.301-130.15-147.337-4.36-1.792-9.353.299-11.136 4.659s.307 9.344 4.668 11.127c56.329 23.074 99.96 70.818 118.008 128.649-26.556 9.361-60.638 12.177-66.705 9.182-3.208-1.604-6.434-8.576-9.276-14.729-5.948-12.885-14.097-30.532-34.901-31.454-10.752-.649-16.811 11.725-24.602 27.179-4.574 9.062-11.477 22.758-16.981 25.464-3.166-.742-9.455-12.919-13.21-20.19-3.473-6.724-7.407-14.345-12.049-21.299-2.517-3.772-2.62-7.356-.341-11.605 5.862-10.94 23.45-19.277 30.02-19.277 15.428 0 23.253-17.715 23.253-52.668 0-4.966-2.551-9.011-5.009-12.928-3.618-5.726-7.347-11.656-5.137-21.777.981-4.497-1.783-8.969-6.246-10.095C309.786 2.261 291.482 0 273.067 0 175.002 0 87.39 65.69 60.015 159.744c-1.323 4.523 1.288 9.259 5.811 10.573zm309.607 55.987c-2.466.7-5.837 1.673-6.733 1.741-11.793 0-19.268 9.131-24.721 15.795-2.082 2.543-5.845 7.108-8.243 7.177-3.857-1.929-7.91-2.901-12.049-2.901-10.061 0-18.773 5.982-20.719 14.242-1.374 5.803.649 13.747 10.419 18.637 13.858 6.929 28.186 14.089 34.56 20.463 4.386 4.386 11.972 6.903 20.821 6.903 13.44 0 31.309-6.528 37.444-24.943 2.423-7.253 8.218-12.8 13.824-18.159 6.502-6.238 12.655-12.117 12.74-20.557.06-4.984-2.15-9.745-6.554-14.157-5.999-5.99-14.165-9.037-24.286-9.037-9.71 0-19.421 2.774-26.503 4.796zm40.277 18.167c-.401 1.681-4.651 5.751-7.475 8.456-6.443 6.161-14.456 13.833-18.21 25.097-4.215 12.629-18.449 13.269-21.257 13.269-4.975 0-8.098-1.314-8.747-1.894-8.346-8.346-23.236-15.795-39.006-23.671-.034-.017-.06-.026-.094-.043 1.604-.657 4.574-.7 7.185.597 2.756 1.382 5.589 2.082 8.405 2.082 9.446 0 15.411-7.287 20.668-13.713 3.849-4.685 7.817-9.54 11.52-9.54 3.029 0 6.554-1.007 11.418-2.398 6.46-1.843 14.498-4.139 21.82-4.139 5.504 0 9.498 1.323 12.211 4.036 1.186 1.196 1.511 1.861 1.562 1.861z"/><path d="M492.817 191.164c-.649-4.676-5.018-7.927-9.617-7.287-4.668.649-7.936 4.958-7.287 9.626a207.833 207.833 0 0 1 1.954 28.365c0 112.111-90.539 203.46-202.342 204.783-30.345-19.379-58.786-43.119-46.114-72.678 22.75-53.103 1.579-72.892-7.467-81.357l-1.698-1.613c-2.586-2.577-5.504-4.335-8.073-5.879-6.246-3.746-7.927-4.753-4.574-14.814 2.219-6.682 5.171-9.796 8.576-13.406 7.893-8.346 13.926-16.648 13.926-40.781 0-14.046-7.125-25.25-19.55-30.737-14.089-6.229-32.905-4.028-42.854 5.001-6.212 5.649-8.303 13.338-5.726 21.077 6.084 18.219-7.817 44.553-33.792 64.034-6.878 5.154-8.926 2.79-10.155 1.382-7.62-8.781-7.031-33.758-.777-40.004 4.19-4.19 5.436-9.54 3.328-14.31-6.912-15.676-51.004-14.464-59.75-14.054a8.546 8.546 0 0 0-8.081 7.484c-1.084 8.823-1.544 16.563-1.544 25.873 0 102.315 69.282 190.882 168.474 215.39 4.557 1.135 9.199-1.664 10.325-6.238 1.135-4.574-1.664-9.199-6.238-10.325-91.554-22.625-155.494-104.391-155.494-198.829 0-5.922.205-11.153.657-16.486 14.438-.017 26.701 1.655 32.956 3.567-9.788 15.283-8.713 45.329 3.251 59.119 8.576 9.882 21.018 10.291 33.289 1.084 32.785-24.585 48.384-57.208 39.74-83.081-.273-.845-.546-1.638 1.024-3.063 4.489-4.079 15.915-5.803 24.465-2.014 6.315 2.79 9.387 7.74 9.387 15.13 0 19.26-3.883 23.373-9.259 29.056-3.985 4.224-8.951 9.472-12.373 19.738-7.671 23.049 4.634 30.438 11.989 34.85 1.903 1.135 3.695 2.21 4.787 3.302a86.639 86.639 0 0 0 2.108 2.014c7.509 7.014 21.47 20.079 3.439 62.157-20.446 47.71 32.273 80.973 54.784 95.181a8.607 8.607 0 0 0 4.557 1.314c122.334 0 221.867-99.533 221.867-221.867a224.594 224.594 0 0 0-2.118-30.704z"/><path d="M415.667 413.602c-41.438 30.874-90.752 47.198-142.601 47.198-131.746 0-238.933-107.179-238.933-238.933 0-4.71-3.823-8.533-8.533-8.533s-8.533 3.823-8.533 8.533c0 138.3 110.251 251.255 247.467 255.787v25.813c0 4.71 3.823 8.533 8.533 8.533s8.533-3.823 8.533-8.533v-25.941c52.403-1.698 102.144-18.85 144.265-50.236a8.535 8.535 0 0 0-10.198-13.688z"/><path d="M279.595 345.745c-10.65 0-23.142 12.254-27.699 23.253-3.558 8.593-2.5 16.606 2.91 22.016 5.094 5.094 12.655 8.021 20.745 8.021s15.65-2.927 20.753-8.021c5.666-5.666 7.049-13.995 3.891-23.441-2.125-6.383-6.34-13.133-11.255-18.057-2.442-2.431-5.761-3.771-9.345-3.771zm4.642 33.195c-3.789 3.789-13.636 3.686-17.323.094-.119-.367-.111-2.5 2.15-6.238 2.944-4.855 7.1-8.286 9.353-9.506 2.423 2.876 4.523 6.477 5.589 9.677.948 2.824 1.033 5.179.231 5.973z"/></svg>