<?xml version="1.0" encoding="iso-8859-1"?>
<!-- Generator: Adobe Illustrator 19.0.0, SVG Export Plug-In . SVG Version: 6.00 Build 0)  -->
<svg version="1.1" id="Layer_1" xmlns="http://www.w3.org/2000/svg" xmlns:xlink="http://www.w3.org/1999/xlink" x="0px" y="0px"
	 viewBox="0 0 512.001 512.001" style="enable-background:new 0 0 512.001 512.001;" xml:space="preserve">
<g>
	<g>
		<path d="M292.323,275.983c-2.397-3.607-7.263-4.588-10.871-2.192c-3.683,2.447-12.981,4.916-25.449,4.916
			c-12.47,0-21.767-2.47-25.45-4.916c-3.607-2.398-8.474-1.417-10.871,2.191s-1.419,8.474,2.188,10.871
			c7.102,4.721,19.862,7.539,34.132,7.539c14.268,0,27.027-2.818,34.13-7.538C293.738,284.458,294.719,279.59,292.323,275.983z"/>
	</g>
</g>
<g>
	<g>
		<path d="M230.476,184.529c-6.126-5.008-17.034-7.999-29.178-7.999c-12.144,0-23.051,2.989-29.177,7.998
			c-3.353,2.742-3.849,7.682-1.108,11.035c2.742,3.352,7.682,3.848,11.035,1.108c2.625-2.147,9.769-4.456,19.25-4.456
			s16.624,2.31,19.25,4.456c1.458,1.19,3.213,1.77,4.959,1.77c2.272,0,4.525-0.982,6.076-2.877
			C234.325,192.211,233.829,187.271,230.476,184.529z"/>
	</g>
</g>
<g>
	<g>
		<circle cx="201.301" cy="216.963" r="13.418"/>
	</g>
</g>
<g>
	<g>
		<path d="M339.88,184.528c-6.125-5.008-17.033-7.998-29.178-7.998c-12.145,0-23.051,2.99-29.178,7.999
			c-3.353,2.742-3.849,7.682-1.107,11.035c1.55,1.896,3.804,2.878,6.076,2.878c1.745,0,3.503-0.58,4.959-1.771
			c2.625-2.147,9.769-4.456,19.25-4.456c9.481,0,16.624,2.31,19.25,4.456c3.352,2.742,8.294,2.245,11.035-1.107
			C343.729,192.21,343.233,187.27,339.88,184.528z"/>
	</g>
</g>
<g>
	<g>
		<circle cx="310.702" cy="216.963" r="13.418"/>
	</g>
</g>
<g>
	<g>
		<path d="M432.5,501.214c-19.588-48.335-58.678-86.939-107.321-105.944c0,0-0.738-0.28-0.751-0.283
			c-7.582-2.921-15.411-5.368-23.355-7.299v-31.648c6.409-2.369,12.579-5.232,18.471-8.536
			c69.58-0.293,102.961-15.542,104.359-16.197c1.981-0.928,3.481-2.646,4.143-4.73c0.662-2.085,0.421-4.356-0.66-6.257
			c-0.177-0.31-17.147-30.628-19.904-74.831c8.552-7.868,13.921-19.144,13.921-31.653c0-12.683-5.536-24.109-14.315-31.994v-30.75
			C407.088,67.778,339.31,0,255.998,0c-29.879,0-58.779,8.717-83.573,25.21c-3.606,2.399-4.585,7.267-2.186,10.872
			c2.399,3.606,7.265,4.585,10.872,2.186c22.216-14.774,48.11-22.584,74.889-22.584c74.664,0,135.406,60.742,135.406,135.406v21.724
			c-0.607-0.193-1.225-0.353-1.841-0.519c-1.163-0.312-2.379-0.603-3.575-0.817c-0.012-0.151-0.03-0.3-0.043-0.451
			c-0.33-4.167-0.863-8.313-1.591-12.428c-0.238-1.346-0.491-2.687-0.768-4.026c-0.819-3.966-2.424-7.605-6.901-8.328
			c-16.419-2.651-31.946-6.323-46.15-10.914c-4.122-1.33-8.542,0.93-9.874,5.05c-1.315,4.073,0.987,8.561,5.051,9.875
			c13.403,4.332,27.885,7.88,43.124,10.568c2.09,0.436,1.846,19.022,1.846,20.605v52.275c0,28.74-11.321,57.327-31.185,78.528
			c-0.558,0.596-1.127,1.18-1.698,1.765c-13.545,13.796-30.538,24.191-49.571,29.774c-10.441,3.048-21.35,4.617-32.229,4.617
			c-10.912,0-21.641-1.674-32.138-4.59c-19.197-5.614-36.322-16.122-49.933-30.078c-17.114-17.55-28.545-40.872-31.667-65.353
			c-0.62-4.863-0.944-9.758-0.944-14.66v-52.275c0-6.382,0.527-12.766,1.583-19.06c0.079-0.472,0.811-5.703,1.11-5.73
			c25.29-2.231,48.363-18.143,67.059-46.356c6.792-10.25,11.919-20.458,15.503-28.579c9.692,14.936,29.226,37.258,66.275,55.38
			c3.889,1.902,8.586,0.292,10.491-3.599c1.903-3.891,0.292-8.586-3.599-10.491c-7.709-3.77-15.021-8.13-22.219-12.787
			c-0.104-0.07-0.208-0.14-0.312-0.21c-34.347-23.292-43.702-48.193-44.219-49.633c-0.009-0.026-0.023-0.066-0.024-0.068
			c-1.054-3.228-4.064-5.406-7.455-5.406c-0.02,0-0.04,0-0.06,0c-3.415,0.025-6.421,2.261-7.432,5.523
			c-0.25,0.808-25.68,80.815-80.216,80.815c-3.535,0-6.633,2.365-7.565,5.775c-1.829,6.696-3.953,14.363-3.953,21.36
			c-0.104,1.036-0.195,2.073-0.274,3.113c-0.005,0.073-1.766,0.374-1.907,0.407c-1.177,0.27-2.358,0.563-3.51,0.927V151.09
			c0-35.121,13.392-68.415,37.71-93.749c3-3.124,2.897-8.089-0.227-11.088c-3.125-3-8.089-2.897-11.088,0.227
			c-27.136,28.27-42.079,65.42-42.079,104.611v30.746c-8.779,7.886-14.315,19.311-14.315,31.997c0,12.509,5.37,23.784,13.921,31.653
			c-2.757,44.203-19.727,74.521-19.899,74.82c-1.09,1.902-1.332,4.172-0.672,6.261c0.661,2.089,2.165,3.807,4.15,4.737
			c1.399,0.656,34.78,15.906,104.361,16.197c5.892,3.303,12.061,6.167,18.469,8.535v31.648c-7.961,1.935-15.81,4.388-23.411,7.319
			c-19.357,7.467-37.304,18.031-53.343,31.403c-3.326,2.773-3.775,7.719-1.002,11.045c2.774,3.327,7.719,3.775,11.045,1.002
			c12.611-10.515,26.507-19.138,41.394-25.699c8.452,20.81,26.18,36.976,47.521,43.852c7.343,2.366,15.155,3.553,22.87,3.553
			c22.968,0,45.538-10.987,59.702-29.056c4.309-5.497,7.894-11.569,10.552-18.031c0.045-0.108,0.094-0.213,0.138-0.322
			c37.791,16.669,68.7,46.488,86.766,83.565H98.842c6.406-13.157,14.464-25.474,24.042-36.734c2.805-3.298,2.405-8.247-0.894-11.052
			c-3.298-2.805-8.247-2.406-11.054,0.893c-13.238,15.566-23.815,32.991-31.435,51.792c-0.98,2.417-0.693,5.164,0.763,7.328
			c1.458,2.163,3.896,3.461,6.504,3.461h338.466c2.609,0,5.046-1.297,6.504-3.461C433.195,506.377,433.48,503.631,432.5,501.214z
			 M386.268,238.556c0.06-1.617,0.099-3.231,0.099-4.848v-46.02c11.188,3.429,19.354,13.863,19.354,26.145
			c0,9.194-4.566,17.336-11.545,22.294c-0.135,0.096-0.272,0.187-0.408,0.28c-2.267,1.546-4.733,2.75-7.36,3.553
			c-0.064,0.02-0.13,0.037-0.193,0.055C386.239,239.529,386.25,239.043,386.268,238.556z M343.49,330.274
			c1.281-1.165,2.539-2.353,3.771-3.568c18.979-18.627,32.302-42.994,37.118-70.263c2.746-0.381,5.476-1.033,8.095-1.94
			c3.043,30.523,11.92,53.784,17.213,65.41c-10.671,3.49-32.762,9.226-67.113,11.214
			C342.886,330.848,343.182,330.554,343.49,330.274z M125.634,187.686v46.021c0,1.617,0.04,3.231,0.099,4.846
			c0.018,0.488,0.029,0.976,0.053,1.463c-0.063-0.019-0.125-0.034-0.187-0.054c-2.621-0.806-5.116-2.016-7.379-3.563
			c-0.129-0.088-0.258-0.175-0.386-0.266c-6.984-4.957-11.554-13.104-11.554-22.301
			C106.279,201.548,114.445,191.113,125.634,187.686z M102.285,319.974c5.29-11.605,14.194-34.893,17.241-65.471
			c1.751,0.606,3.547,1.087,5.369,1.462c0.031,0.006,0.063,0.014,0.094,0.02c0.871,0.177,1.752,0.338,2.633,0.459
			c4.536,25.683,16.616,48.796,33.862,66.961c0.045,0.047,0.089,0.096,0.134,0.143c2.448,2.587,5.097,5.159,7.782,7.558
			C137.822,329.235,114.91,324.12,102.285,319.974z M311.707,407.22c-9.232,22.207-31.642,37.256-55.707,37.256
			c-18.685,0-36.645-9.024-47.986-23.833c-0.786-1.027-8.329-13.371-7.774-13.557c6.579-2.211,13.318-4.038,20.121-5.45
			c3.639-0.755,6.249-3.962,6.249-7.678c0,0,0-33.169,0-33.217c0,2.797,27.619,3.334,29.392,3.334c9.868,0,19.773-1.117,29.39-3.334
			v33.217c0,3.717,2.609,6.923,6.249,7.678c6.802,1.412,13.542,3.238,20.121,5.45C311.742,407.129,311.725,407.175,311.707,407.22z"
			/>
	</g>
</g>
<g>
</g>
<g>
</g>
<g>
</g>
<g>
</g>
<g>
</g>
<g>
</g>
<g>
</g>
<g>
</g>
<g>
</g>
<g>
</g>
<g>
</g>
<g>
</g>
<g>
</g>
<g>
</g>
<g>
</g>
</svg>
