<?xml version="1.0" encoding="iso-8859-1"?>
<!-- Generator: Adobe Illustrator 19.0.0, SVG Export Plug-In . SVG Version: 6.00 Build 0)  -->
<svg version="1.1" id="Capa_1" xmlns="http://www.w3.org/2000/svg" xmlns:xlink="http://www.w3.org/1999/xlink" x="0px" y="0px"
	 viewBox="0 0 512 512" style="enable-background:new 0 0 512 512;" xml:space="preserve">
<g>
	<g>
		<path d="M334.66,320.105c-4.143,0-7.5,3.358-7.5,7.5v12.451c0,4.142,3.357,7.5,7.5,7.5c4.143,0,7.5-3.358,7.5-7.5v-12.451
			C342.16,323.463,338.803,320.105,334.66,320.105z"/>
	</g>
</g>
<g>
	<g>
		<path d="M173.347,320.105c-4.143,0-7.5,3.358-7.5,7.5v12.451c0,4.142,3.357,7.5,7.5,7.5c4.143,0,7.5-3.358,7.5-7.5v-12.451
			C180.847,323.463,177.49,320.105,173.347,320.105z"/>
	</g>
</g>
<g>
	<g>
		<path d="M284.91,332.209c-4.044-4.13-9.936-4.625-14.015-4.638c-0.009-0.001-0.017-0.001-0.025-0.001h-33.758
			c-4.079,0.013-9.971,0.508-14.014,4.638c-1.753,1.791-3.823,4.999-3.731,10.113c0.651,36.185,13.276,56.938,34.637,56.939
			c21.358,0,33.983-20.754,34.637-56.938C288.733,337.208,286.662,334,284.91,332.209z M254.004,384.259
			c-6.477,0-10.828-4.273-13.754-10.258c3.862-2.141,8.714-3.359,13.754-3.359c5.039,0,9.891,1.218,13.753,3.359
			C264.831,379.986,260.48,384.259,254.004,384.259z M272.101,359.417c-5.439-2.443-11.65-3.775-18.097-3.775
			c-6.447,0-12.658,1.331-18.098,3.775c-1.062-6.182-1.424-12.286-1.526-16.658c0.575-0.096,1.456-0.185,2.757-0.189h33.724
			c1.308,0.005,2.191,0.094,2.768,0.19C273.526,347.132,273.163,353.235,272.101,359.417z"/>
	</g>
</g>
<g>
	<g>
		<path d="M501.717,37.473c-5.963-6.532-14.161-10.241-23.084-10.443c-6.743-0.162-13.348,1.778-18.925,5.416
			c-5.578-3.638-12.183-5.57-18.926-5.416c-8.923,0.203-17.12,3.912-23.083,10.443c-7.939,8.697-11.309,18.359-10.013,28.718
			c2.723,21.771,26.237,40.229,40.012,49.294c3.647,2.4,7.828,3.601,12.009,3.601c4.182,0,8.362-1.2,12.01-3.601
			c13.774-9.064,37.289-27.522,40.013-49.294C513.025,55.833,509.656,46.17,501.717,37.473z M496.846,64.33
			c-0.684,5.459-5.303,20.151-33.375,38.625c-2.285,1.504-5.241,1.504-7.526,0c-28.073-18.475-32.691-33.167-33.374-38.625
			c-0.736-5.885,1.294-11.362,6.207-16.744c3.174-3.477,7.559-5.452,12.346-5.561c0.137-0.003,0.271-0.005,0.407-0.005
			c4.801,0,9.473,1.93,12.875,5.331c1.406,1.407,3.313,2.197,5.303,2.197s3.896-0.791,5.304-2.197
			c3.497-3.498,8.354-5.451,13.28-5.326c4.788,0.109,9.173,2.083,12.347,5.561C495.552,52.967,497.581,58.444,496.846,64.33z"/>
	</g>
</g>
<g>
	<g>
		<path d="M61.094,140.909c-4.096-4.487-9.724-7.035-15.846-7.174c-3.96-0.097-7.83,0.867-11.263,2.708
			c-3.434-1.842-7.331-2.805-11.263-2.708c-6.121,0.14-11.749,2.688-15.845,7.174c-5.253,5.754-7.569,12.473-6.699,19.43
			c1.674,13.39,14.529,24.43,25.02,31.334c2.669,1.756,5.729,2.634,8.787,2.634s6.118-0.878,8.787-2.634
			c10.49-6.903,23.346-17.943,25.021-31.333C68.663,153.381,66.347,146.662,61.094,140.909z M52.908,158.477
			c-0.731,5.846-7.604,13.571-18.383,20.665c-0.328,0.217-0.754,0.216-1.082,0c-10.779-7.095-17.651-14.82-18.381-20.665
			c-0.202-1.619-0.123-4.152,2.894-7.456c1.308-1.433,3.122-2.246,5.108-2.292c0.058-0.001,0.114-0.002,0.172-0.002
			c2.03,0,4.007,0.816,5.445,2.255c2.93,2.929,7.678,2.929,10.607,0c1.479-1.48,3.515-2.299,5.618-2.253
			c1.986,0.045,3.801,0.859,5.108,2.292C53.03,154.325,53.11,156.858,52.908,158.477z"/>
	</g>
</g>
<g>
	<g>
		<path d="M447.693,276.914c1.953-21.494,1.958-42.306-0.008-62.057c-0.409-4.122-4.078-7.128-8.205-6.721
			c-4.122,0.41-7.131,4.084-6.721,8.206c2.914,29.297,0.655,56.835-1.754,74.777c-1.205,8.979-5.846,16.926-13.068,22.378
			c-7.077,5.343-15.777,7.589-24.47,6.325c-23.507-3.413-42.518-14.161-56.502-31.945c-10.643-13.535-27.735-20.568-44.607-18.347
			c-50.176,6.597-73.477-17.018-84.186-37.989c-5.818-11.395-15.818-20.235-28.157-24.893
			c-21.498-8.114-34.979-24.377-40.067-48.337c-3.214-15.13-1.99-28.869-1.398-33.608c4.939-6.102,25.887-30.43,58.763-47.586
			c21.849-11.402,44.676-17.468,67.845-18.03c29.035-0.706,58.824,7.273,88.574,23.708c37.605,20.773,62.367,54.788,73.595,101.096
			c0.976,4.025,5.03,6.498,9.057,5.521c4.025-0.976,6.497-5.03,5.521-9.056c-12.261-50.561-39.486-87.803-80.92-110.691
			c-32.239-17.809-64.73-26.404-96.565-25.564c-25.546,0.679-50.639,7.407-74.579,19.997
			c-36.209,19.041-58.395,45.396-63.385,51.701c-30.829,16.619-50.883,44.636-59.602,83.319
			c-6.015,26.687-5.547,54.186-3.325,75.983c-19.269,9.954-31.491,29.805-31.491,51.755c0,25.661,15.955,49.84,40.933,55.633
			c5.361,1.243,8.39-1.721,9.389-4.934c1.23-3.956-0.979-8.159-4.934-9.389c-18.176-5.653-30.388-22.254-30.388-41.31
			c0-14.397,7.084-27.573,18.597-35.548c1.955,10.971,8.266,20.546,17.546,26.647c0.976,44.027,18.691,85.387,50.139,116.835
			c32.363,32.363,75.222,50.187,120.683,50.187c24.229,0,47.681-5.03,69.706-14.95c3.776-1.701,5.459-6.142,3.759-9.918
			c-1.701-3.776-6.141-5.46-9.919-3.758c-20.076,9.042-41.457,13.627-63.548,13.627c-41.454,0-80.545-16.263-110.075-45.793
			c-27.169-27.169-43.096-62.435-45.471-100.184c2.256,0.391,11.538,1.563,20.601-1.825c45.06-16.847,71.66-52.969,82.904-72.082
			c12.147,16.929,34.482,35.564,73.967,35.562c5.755,0,11.88-0.396,18.385-1.251c11.647-1.528,23.476,3.353,30.861,12.747
			c11.305,14.375,31.943,32.638,66.137,37.518c9.609,1.371,13.882,0.108,17.258-0.647c-5.747,43.965-30.518,84.247-67.841,109.415
			c-3.434,2.316-4.341,6.977-2.025,10.412c1.449,2.148,3.815,3.308,6.226,3.308c1.442,0,2.9-0.416,4.187-1.283
			c26.58-17.924,47.351-42.854,60.368-71.346c2.719,0.385,64.602,4.361,66.484-57.667
			C476.587,306.43,465.022,287.363,447.693,276.914z M113.934,308.077c-7.14,2.596-14.98,1.857-21.516-2.023
			c-6.57-3.902-10.995-10.481-12.14-18.048c-13.795-91.178,16.461-133.232,42.54-152.222c-0.076,6.988,0.412,15.774,2.353,25.138
			c6.039,29.14,23.173,49.805,49.55,59.761c7.662,2.892,14.039,7.996,18.285,14.555
			C186.649,247.546,161.479,290.791,113.934,308.077z M460.968,326.856c-2.147,43.091-44.855,43.223-45.653,43.179
			c4.814-13.715,7.894-28.069,9.038-42.728c0.889-0.584,17.295-10.623,21.386-33.346
			C455.211,302.084,461.603,314.118,460.968,326.856z"/>
	</g>
</g>
<g>
</g>
<g>
</g>
<g>
</g>
<g>
</g>
<g>
</g>
<g>
</g>
<g>
</g>
<g>
</g>
<g>
</g>
<g>
</g>
<g>
</g>
<g>
</g>
<g>
</g>
<g>
</g>
<g>
</g>
</svg>
