<?xml version="1.0" encoding="iso-8859-1"?>
<!-- Generator: Adobe Illustrator 19.0.0, SVG Export Plug-In . SVG Version: 6.00 Build 0)  -->
<svg fill="#5882bf" version="1.1" id="Layer_1" xmlns="http://www.w3.org/2000/svg" xmlns:xlink="http://www.w3.org/1999/xlink" x="0px" y="0px"
	 viewBox="0 0 511.999 511.999" style="enable-background:new 0 0 511.999 511.999;" xml:space="preserve">
<g>
	<g>
		<path d="M502.325,266.736c4.399,0,7.963-3.564,7.963-7.963v-51.938c0.028-2.408-1.095-4.762-2.957-6.282l-83.867-69.407
			c-0.415-0.343-0.856-0.636-1.313-0.882c-0.076-2.833-0.185-5.634-0.358-8.361c-2.418-38.107-13.777-61.075-32.849-66.423
			c-12.536-3.513-26.189,1.214-40.287,13.758L271.908,5.721c-9.22-7.628-22.597-7.628-31.817,0l-51.64,42.737
			c-3.387,2.805-3.862,7.824-1.057,11.213c2.805,3.388,7.825,3.861,11.213,1.057l51.641-42.737c3.333-2.761,8.173-2.761,11.508,0
			l75.76,62.698c-3.705,4.307-7.429,9.12-11.159,14.458c-19.975,28.579-37.849,68.844-50.333,113.375
			c-8.68,30.962-14.129,61.94-15.821,89.796L256,300.057l-8.573-3.547c-2.753-16.859-6.592-34.165-11.448-51.488
			c-8.248-29.418-19.093-57.601-31.368-81.504c-1.472-2.867-4.88-4.68-8.069-4.68H94.488c-3.941,0-7.289,2.884-7.875,6.781
			c-3.366,22.415-5.062,43.45-5.061,62.254l-56.608-23.424l137.84-114.076c3.387-2.805,3.862-7.824,1.057-11.213
			c-2.805-3.388-7.823-3.859-11.213-1.058L4.659,200.56c-1.857,1.519-2.977,3.87-2.948,6.274v280.214
			c0,13.758,11.193,24.951,24.951,24.951h458.675c13.758,0,24.951-11.193,24.951-24.951V300.711c0-4.399-3.564-7.963-7.963-7.963
			c-4.399,0-7.963,3.564-7.963,7.963v186.337c0,4.976-4.048,9.025-9.025,9.025H26.662c-4.976,0-9.025-4.048-9.025-9.025V218.659
			l64.453,26.67c0.307,4.819,0.737,9.456,1.31,13.867c3.725,28.68,12.741,45.59,26.799,50.266
			c7.267,2.413,15.036,0.873,21.635-2.712c9.21-5.001,18.749-15.132,28.04-29.235l93.081,38.516c1.937,0.802,4.152,0.802,6.088,0
			l235.318-97.373v40.114C494.362,263.171,497.926,266.736,502.325,266.736z M124.233,292.756c-3.528,1.916-6.478,2.439-9.009,1.594
			h-0.001c-7.328-2.437-13.321-16.346-16.03-37.204c-2.852-21.96-2.062-51.002,2.199-82.383h84.747
			C166.972,243.074,140.978,283.664,124.233,292.756z M168.187,263.722c6.249-11.289,12.293-24.311,17.948-38.7
			c3.647,10.086,6.984,20.514,9.973,31.176c1.988,7.088,3.779,14.216,5.399,21.31L168.187,263.722z M219.398,284.911
			c-2.209-10.926-4.874-22.02-7.956-33.012c-4.846-17.286-10.588-33.992-17.062-49.691c1.513-4.555,2.989-9.198,4.415-13.944
			c8.376,18.789,15.823,39.562,21.849,61.055c3.761,13.417,6.892,26.814,9.358,39.979L219.398,284.911z M358.568,257.614
			l-55.12,22.808c2.441-19.412,6.687-40.19,12.443-60.723c10.227-36.479,24.511-70.069,40.223-94.579
			c8.731-13.621,15.738-21.123,20.358-25.151c1.852,5.841,3.939,15.892,4.316,32.068c0.682,29.104-4.576,65.224-14.802,101.705
			C363.73,241.794,361.231,249.81,358.568,257.614z M390.523,240.621c-0.349,1.248-0.703,2.49-1.061,3.728
			c-0.051,0.177-0.087,0.356-0.125,0.534l-11.429,4.729c1.184-3.839,2.329-7.701,3.416-11.572
			c10.64-37.958,16.106-75.738,15.389-106.375c-0.771-32.959-8.316-45.313-10.609-48.314c-2.154-2.818-5.912-3.871-9.219-2.584
			c-3.52,1.372-16.389,8.005-34.177,35.758c-16.539,25.803-31.508,60.917-42.149,98.875c-6.855,24.452-11.652,49.292-13.919,71.979
			l-9.981,4.13c2.094-24.686,7.122-51.664,14.699-78.687c12.012-42.851,29.078-81.403,48.053-108.551
			c16.883-24.157,33.795-36.662,45.236-33.456c11.442,3.208,19.389,22.682,21.254,52.095
			C407.997,155.964,402.535,197.768,390.523,240.621z M407.956,237.179c7.988-30.346,12.755-60.07,13.98-86.625l65.12,53.893
			L407.956,237.179z"/>
	</g>
</g>
<g>
	<g>
		<path d="M340.939,334.688c-4.399,0-7.963,3.564-7.963,7.963c0,9.66-7.859,17.519-17.519,17.519
			c-9.66,0-17.519-7.859-17.519-17.519c0-4.399-3.564-7.963-7.963-7.963c-4.399,0-7.963,3.564-7.963,7.963
			c0,18.441,15.004,33.445,33.445,33.445s33.445-15.004,33.445-33.445C348.902,338.253,345.338,334.688,340.939,334.688z"/>
	</g>
</g>
<g>
	<g>
		<path d="M222.024,334.688c-4.399,0-7.963,3.564-7.963,7.963c0,9.66-7.859,17.519-17.519,17.519s-17.519-7.859-17.519-17.519
			c0-4.399-3.564-7.963-7.963-7.963c-4.399,0-7.963,3.564-7.963,7.963c0,18.441,15.004,33.445,33.445,33.445
			c18.441,0,33.445-15.004,33.445-33.445C229.987,338.253,226.422,334.688,222.024,334.688z"/>
	</g>
</g>
<g>
	<g>
		<path d="M315.457,394.146H196.542c-4.399,0-7.963,3.564-7.963,7.963c0,37.175,30.245,67.421,67.421,67.421
			s67.421-30.245,67.421-67.421C323.42,397.71,319.856,394.146,315.457,394.146z M246.975,410.072h18.05v18.05h-18.05V410.072z
			 M255.999,453.604c-25.687,0-47.042-18.904-50.88-43.532h25.929v26.013c0,4.399,3.564,7.963,7.963,7.963h33.976
			c4.399,0,7.963-3.564,7.963-7.963v-26.013h25.929C303.041,434.7,281.686,453.604,255.999,453.604z"/>
	</g>
</g>
<g>
</g>
<g>
</g>
<g>
</g>
<g>
</g>
<g>
</g>
<g>
</g>
<g>
</g>
<g>
</g>
<g>
</g>
<g>
</g>
<g>
</g>
<g>
</g>
<g>
</g>
<g>
</g>
<g>
</g>
</svg>
