<?xml version="1.0" encoding="iso-8859-1"?>
<!-- Generator: Adobe Illustrator 19.0.0, SVG Export Plug-In . SVG Version: 6.00 Build 0)  -->
<svg version="1.1" id="Layer_1" xmlns="http://www.w3.org/2000/svg" xmlns:xlink="http://www.w3.org/1999/xlink" x="0px" y="0px"
	 viewBox="0 0 512 512" style="enable-background:new 0 0 512 512;" xml:space="preserve">
<g>
	<g>
		<g>
			<path d="M313.902,68.794c1.423,1.012,3.06,1.5,4.683,1.5c2.527,0,5.014-1.181,6.591-3.395c2.59-3.636,1.742-8.685-1.895-11.275
				L322.405,55c-3.638-2.589-8.686-1.742-11.275,1.896c-2.59,3.636-1.742,8.685,1.895,11.275L313.902,68.794z"/>
			<path d="M257.468,102.225c-6.071,4.376-9.552,11.178-9.552,18.661v72.971c0,9.916,6.321,18.685,15.729,21.821l79.302,26.433
				c0.014,0.004,0.029,0.006,0.044,0.011c0.279,0.091,0.566,0.149,0.853,0.209c0.134,0.028,0.267,0.073,0.402,0.095
				c0.149,0.024,0.301,0.022,0.452,0.037c0.268,0.027,0.538,0.065,0.805,0.065c0.432,0,0.86-0.037,1.281-0.105
				c0.042-0.006,0.082-0.022,0.123-0.029c0.377-0.067,0.749-0.154,1.111-0.273c0.013-0.004,0.027-0.005,0.041-0.01l79.303-26.433
				c9.407-3.136,15.728-11.905,15.728-21.821v-72.971c0-7.484-3.482-14.284-9.552-18.661c-6.071-4.376-13.625-5.526-20.723-3.161
				l-67.311,22.438l-67.311-22.438C271.092,96.699,263.539,97.85,257.468,102.225z M353.586,135.849l64.341-21.446
				c2.106-0.703,4.351-0.362,6.155,0.939c1.804,1.3,2.838,3.32,2.838,5.544v72.971c0,2.946-1.878,5.551-4.672,6.482l-68.662,22.887
				V135.849z M337.418,223.226l-68.662-22.887c-2.794-0.931-4.672-3.537-4.671-6.482v-72.971c0-2.224,1.034-4.244,2.837-5.544
				c1.803-1.301,4.047-1.642,6.156-0.939l64.34,21.447V223.226z"/>
			<path d="M355.053,58.41c1.423,1.012,3.06,1.5,4.683,1.5c2.527,0,5.014-1.181,6.591-3.395c2.59-3.636,1.742-8.685-1.895-11.275
				l-0.877-0.625c-3.638-2.588-8.686-1.741-11.275,1.896c-2.59,3.636-1.742,8.685,1.895,11.275L355.053,58.41z"/>
			<path d="M336.287,84.745c1.423,1.012,3.06,1.5,4.683,1.5c2.527,0,5.014-1.181,6.591-3.395c2.59-3.636,1.742-8.685-1.895-11.275
				l-0.877-0.625c-3.638-2.588-8.685-1.741-11.275,1.896c-2.59,3.636-1.742,8.685,1.895,11.275L336.287,84.745z"/>
			<path d="M246.299,280.253h-1.078c-4.465,0-8.084,3.618-8.084,8.084c0,4.466,3.62,8.084,8.084,8.084h1.078
				c4.465,0,8.084-3.619,8.084-8.084C254.383,283.871,250.764,280.253,246.299,280.253z"/>
			<path d="M63.844,249.789c-30.299-25.194-47.675-62.217-47.675-101.579c0-72.809,59.234-132.042,132.042-132.042
				c49.415,0,94.314,27.245,117.173,71.105c2.063,3.958,6.945,5.495,10.905,3.432c3.959-2.063,5.496-6.945,3.433-10.905
				C254.066,30.578,203.675,0,148.21,0C66.487,0,0,66.488,0,148.21c0,44.181,19.502,85.736,53.507,114.01
				c1.51,1.256,3.343,1.868,5.165,1.868c2.319,0,4.622-0.993,6.221-2.916C67.746,257.741,67.277,252.645,63.844,249.789z"/>
			<path d="M137.432,145.516h1.078c4.465,0,8.084-3.618,8.084-8.084c0-4.466-3.62-8.084-8.084-8.084h-1.078
				c-4.465,0-8.084,3.619-8.084,8.084C129.347,141.897,132.967,145.516,137.432,145.516z"/>
			<path d="M313.744,329.187c-4.081-1.819-8.857,0.013-10.675,4.092c-17.752,39.815-57.382,65.542-100.963,65.542
				c-60.922,0-110.484-49.563-110.484-110.484c0-21.498,6.176-42.334,17.863-60.258c2.438-3.74,1.383-8.749-2.357-11.187
				c-3.738-2.437-8.748-1.384-11.188,2.356c-13.401,20.557-20.486,44.447-20.486,69.089c0,69.837,56.816,126.653,126.653,126.653
				c49.956,0,95.383-29.489,115.73-75.127C319.654,335.785,317.822,331.005,313.744,329.187z"/>
			<path d="M115.874,431.158c-22.289,0-40.421,18.132-40.421,40.421c0,22.289,18.132,40.421,40.421,40.421
				s40.421-18.132,40.421-40.421C156.295,449.29,138.162,431.158,115.874,431.158z M115.874,495.832
				c-13.373,0-24.253-10.88-24.253-24.253s10.879-24.253,24.253-24.253c13.373,0,24.253,10.88,24.253,24.253
				S129.247,495.832,115.874,495.832z"/>
			<path d="M353.01,0c-28.645,0-56.73,7.704-81.216,22.282c-3.836,2.283-5.095,7.245-2.811,11.081
				c2.284,3.837,7.245,5.096,11.082,2.811c21.986-13.088,47.211-20.006,72.945-20.006c78.752,0,142.821,64.069,142.821,142.821
				S431.763,301.811,353.01,301.811c-25.111,0-49.803-6.605-71.405-19.101c-3.863-2.233-8.811-0.916-11.046,2.949
				c-2.236,3.865-0.914,8.811,2.95,11.046c24.06,13.918,51.551,21.274,79.501,21.274c87.667,0,158.99-71.322,158.99-158.989
				S440.678,0,353.01,0z"/>
			<path d="M246.299,312.589h-1.078c-4.465,0-8.084,3.618-8.084,8.084c0,4.466,3.62,8.084,8.084,8.084h1.078
				c4.465,0,8.084-3.618,8.084-8.084C254.383,316.208,250.764,312.589,246.299,312.589z"/>
			<path d="M84.747,190.656c7.398,7.396,17.114,11.096,26.831,11.096c9.529,0,19.051-3.567,26.392-10.68
				c7.34,7.113,16.864,10.68,26.392,10.68c9.717,0,19.433-3.699,26.831-11.096c14.652-14.652,14.784-38.397,0.416-53.224
				c14.368-14.828,14.236-38.572-0.416-53.224c-14.652-14.651-38.396-14.783-53.223-0.416
				c-14.828-14.367-38.571-14.235-53.223,0.416c-14.652,14.652-14.784,38.397-0.416,53.224
				C69.963,152.259,70.096,176.004,84.747,190.656z M96.181,179.223c-8.343-8.342-8.468-21.814-0.415-30.335l30.75,30.751
				C117.994,187.689,104.522,187.564,96.181,179.223z M179.762,179.222c-8.343,8.344-21.813,8.468-30.335,0.416l30.75-30.751
				C188.228,157.408,188.103,170.88,179.762,179.222z M179.76,95.641c8.343,8.342,8.468,21.814,0.415,30.335l-30.75-30.751
				C157.947,87.174,171.419,87.299,179.76,95.641z M168.766,137.432l-30.795,30.795l-30.795-30.795l30.795-30.795L168.766,137.432z
				 M96.179,95.642c4.246-4.246,9.821-6.368,15.398-6.368c5.382,0,10.752,1.998,14.937,5.952l-30.75,30.751
				C87.713,117.455,87.838,103.983,96.179,95.642z"/>
			<path d="M264.084,245.221c0-4.466-3.62-8.084-8.084-8.084h-31.396c-10.494,0-19.776,6.689-23.095,16.645l-24.925,74.775
				c-1.115,3.345-4.232,5.591-7.755,5.591c-3.052,0-5.827-1.679-7.242-4.382l-27.772-53.019c-2.072-3.955-6.958-5.481-10.913-3.409
				c-3.955,2.072-5.482,6.957-3.41,10.913l27.772,53.019c4.217,8.048,12.48,13.047,21.564,13.047
				c10.494,0,19.776-6.689,23.095-16.645l24.925-74.775c1.115-3.345,4.232-5.591,7.755-5.591H256
				C260.465,253.305,264.084,249.687,264.084,245.221z"/>
			<path d="M63.057,204.8h-1.078c-4.465,0-8.084,3.619-8.084,8.084s3.62,8.084,8.084,8.084h1.078c4.465,0,8.084-3.619,8.084-8.084
				S67.521,204.8,63.057,204.8z"/>
			<path d="M160.067,264.084c4.465,0,8.084-3.619,8.084-8.084c0-4.466-3.62-8.084-8.084-8.084h-1.078
				c-4.465,0-8.084,3.619-8.084,8.084c0,4.466,3.62,8.084,8.084,8.084H160.067z"/>
		</g>
	</g>
</g>
<g>
</g>
<g>
</g>
<g>
</g>
<g>
</g>
<g>
</g>
<g>
</g>
<g>
</g>
<g>
</g>
<g>
</g>
<g>
</g>
<g>
</g>
<g>
</g>
<g>
</g>
<g>
</g>
<g>
</g>
</svg>
