<?xml version="1.0" encoding="iso-8859-1"?>
<!-- Generator: Adobe Illustrator 16.0.0, SVG Export Plug-In . SVG Version: 6.00 Build 0)  -->
<!DOCTYPE svg PUBLIC "-//W3C//DTD SVG 1.1//EN" "http://www.w3.org/Graphics/SVG/1.1/DTD/svg11.dtd">
<svg viewBox="0 0 612 612" style="enable-background:new 0 0 612 612;">
			<path id="path-1_19_" d="M154.543,610.728L154.543,610.728c-3.737,0-6.539-1.311-8.05-2.016l-119.602-0.17
				c-0.109,0.09-0.566,0.309-0.964,0.457c-1.799,0.695-2.385,1.729-5.794,1.729c-8.188,0-14.34-6.24-14.34-18.176V232.754
				c0-15.364,5.446-31.95,21.098-31.95h119.84c13.992,0,28.004,13.138,28.004,31.95v359.798c0,1.988-2.236,4.602-3.15,7.295
				C169.4,606.456,161.41,610.728,154.543,610.728z M35.607,578.708h109.316V232.754c0-0.715-4.293-1.441-4.373-2.117H31.682
				c-0.179,0.745,3.925,1.521,3.925,2.117V578.708z"/>
			<path id="path-2_12_" d="M91.776,186.841C41.163,186.841,0,145.212,0,94.042c0-51.16,41.163-92.77,91.776-92.77
				c50.583,0,91.736,41.61,91.736,92.77C183.512,145.212,142.359,186.841,91.776,186.841z M91.776,31.106
				c-34.167,0-61.962,28.233-61.962,62.936c0,34.723,27.796,62.966,61.962,62.966c34.146,0,61.922-28.243,61.922-62.966
				C153.698,59.339,125.922,31.106,91.776,31.106z"/>
			<path id="path-3_6_" d="M593.754,610.728c-2.584,0-5.326-0.715-7.801-2.186H470.326c-1.361,0.039-3.428,0.408-5.704,0.756
				c-4.481,0.666-7.434,1.43-12.114,1.43c-16.983,0-19.389-11.428-19.389-18.176V394.958c0-21.941-24.039-38.965-44.72-38.965
				s-44.721,17.023-44.721,38.965v188.641c0,2.98,2.365,6.967,2.365,10.941c0,8.924-8.695,16.188-18.087,16.188
				c-3.061,0-6.985-0.783-9.46-2.186h-87.871c-1.003,0.08-2.176,0.467-3.289,0.746c-2.664,0.676-3.558,1.439-6.897,1.439
				c-10.435,0-15.891-7.641-15.891-18.176V232.754c0-13.943,10.455-31.95,26.077-31.95h95.88c6.102,0,11.438,2.733,14.599,7.503
				c2.415,3.618,3.021,7.324,2.763,10.763c25.719-8.735,63.373-15.751,104.953-15.751c88.814,0,163.179,71.195,163.179,158.707
				v227.408c0,2.932-0.606,6.201-1.342,9.439C609.118,605.661,600.711,610.728,593.754,610.728z M388.399,326.159
				c35.259,0,74.533,28.254,74.533,68.799v185.053c0-0.08-1.112-0.148-0.616-0.219c3.856-0.586,5.049-1.084,8.01-1.084h111.86
				V362.024c0-69.853-62.23-128.873-133.365-128.873c-53.128,0-96.248,12.601-116.134,23.403c-4.61,2.495-8.605,2.395-13.138-0.298
				c-4.512-2.693-5.684-7.553-5.684-12.82v-10.683c0-0.706-4.214-1.421-4.145-2.117h-77.127c-0.914,0.795,1.769,2.156,1.769,3.13
				v344.94c0,0-3.905,0-3.736,0h83.239v-183.75C313.866,354.413,353.14,326.159,388.399,326.159z"/>
</svg>
