<svg xmlns="http://www.w3.org/2000/svg" viewBox="0 0 511.999 511.999"><path d="M502.325 266.736a7.962 7.962 0 0 0 7.963-7.963v-51.938c.028-2.408-1.095-4.762-2.957-6.282l-83.867-69.407a8.042 8.042 0 0 0-1.313-.882 230.121 230.121 0 0 0-.358-8.361c-2.418-38.107-13.777-61.075-32.849-66.423-12.536-3.513-26.189 1.214-40.287 13.758L271.908 5.721c-9.22-7.628-22.597-7.628-31.817 0l-51.64 42.737a7.965 7.965 0 0 0 10.156 12.27l51.641-42.737a9.03 9.03 0 0 1 11.508 0l75.76 62.698c-3.705 4.307-7.429 9.12-11.159 14.458-19.975 28.579-37.849 68.844-50.333 113.375-8.68 30.962-14.129 61.94-15.821 89.796L256 300.057l-8.573-3.547c-2.753-16.859-6.592-34.165-11.448-51.488-8.248-29.418-19.093-57.601-31.368-81.504-1.472-2.867-4.88-4.68-8.069-4.68H94.488a7.965 7.965 0 0 0-7.875 6.781c-3.366 22.415-5.062 43.45-5.061 62.254l-56.608-23.424 137.84-114.076a7.965 7.965 0 0 0-10.156-12.271L4.659 200.56c-1.857 1.519-2.977 3.87-2.948 6.274v280.214c0 13.758 11.193 24.951 24.951 24.951h458.675c13.758 0 24.951-11.193 24.951-24.951V300.711a7.962 7.962 0 0 0-7.963-7.963 7.962 7.962 0 0 0-7.963 7.963v186.337c0 4.976-4.048 9.025-9.025 9.025H26.662c-4.976 0-9.025-4.048-9.025-9.025V218.659l64.453 26.67c.307 4.819.737 9.456 1.31 13.867 3.725 28.68 12.741 45.59 26.799 50.266 7.267 2.413 15.036.873 21.635-2.712 9.21-5.001 18.749-15.132 28.04-29.235l93.081 38.516a8.003 8.003 0 0 0 6.088 0l235.318-97.373v40.114a7.964 7.964 0 0 0 7.964 7.964zm-378.092 26.02c-3.528 1.916-6.478 2.439-9.009 1.594h-.001c-7.328-2.437-13.321-16.346-16.03-37.204-2.852-21.96-2.062-51.002 2.199-82.383h84.747c-19.167 68.311-45.161 108.901-61.906 117.993zm43.954-29.034c6.249-11.289 12.293-24.311 17.948-38.7a445.31 445.31 0 0 1 9.973 31.176 449.777 449.777 0 0 1 5.399 21.31l-33.32-13.786zm51.211 21.189a461.43 461.43 0 0 0-7.956-33.012c-4.846-17.286-10.588-33.992-17.062-49.691a507.186 507.186 0 0 0 4.415-13.944c8.376 18.789 15.823 39.562 21.849 61.055 3.761 13.417 6.892 26.814 9.358 39.979l-10.604-4.387zm139.17-27.297l-55.12 22.808c2.441-19.412 6.687-40.19 12.443-60.723 10.227-36.479 24.511-70.069 40.223-94.579 8.731-13.621 15.738-21.123 20.358-25.151 1.852 5.841 3.939 15.892 4.316 32.068.682 29.104-4.576 65.224-14.802 101.705a450.693 450.693 0 0 1-7.418 23.872zm31.955-16.993c-.349 1.248-.703 2.49-1.061 3.728-.051.177-.087.356-.125.534l-11.429 4.729a475.347 475.347 0 0 0 3.416-11.572c10.64-37.958 16.106-75.738 15.389-106.375-.771-32.959-8.316-45.313-10.609-48.314a7.966 7.966 0 0 0-9.219-2.584c-3.52 1.372-16.389 8.005-34.177 35.758-16.539 25.803-31.508 60.917-42.149 98.875-6.855 24.452-11.652 49.292-13.919 71.979l-9.981 4.13c2.094-24.686 7.122-51.664 14.699-78.687 12.012-42.851 29.078-81.403 48.053-108.551 16.883-24.157 33.795-36.662 45.236-33.456 11.442 3.208 19.389 22.682 21.254 52.095 2.096 33.054-3.366 74.858-15.378 117.711zm17.433-3.442c7.988-30.346 12.755-60.07 13.98-86.625l65.12 53.893-79.1 32.732z"/><path d="M340.939 334.688a7.962 7.962 0 0 0-7.963 7.963c0 9.66-7.859 17.519-17.519 17.519-9.66 0-17.519-7.859-17.519-17.519a7.962 7.962 0 0 0-7.963-7.963 7.962 7.962 0 0 0-7.963 7.963c0 18.441 15.004 33.445 33.445 33.445s33.445-15.004 33.445-33.445a7.962 7.962 0 0 0-7.963-7.963zm-118.915 0a7.962 7.962 0 0 0-7.963 7.963c0 9.66-7.859 17.519-17.519 17.519s-17.519-7.859-17.519-17.519a7.962 7.962 0 0 0-7.963-7.963 7.962 7.962 0 0 0-7.963 7.963c0 18.441 15.004 33.445 33.445 33.445 18.441 0 33.445-15.004 33.445-33.445a7.963 7.963 0 0 0-7.963-7.963zm93.433 59.458H196.542a7.962 7.962 0 0 0-7.963 7.963c0 37.175 30.245 67.421 67.421 67.421s67.421-30.245 67.421-67.421a7.963 7.963 0 0 0-7.964-7.963zm-68.482 15.926h18.05v18.05h-18.05v-18.05zm9.024 43.532c-25.687 0-47.042-18.904-50.88-43.532h25.929v26.013a7.962 7.962 0 0 0 7.963 7.963h33.976a7.962 7.962 0 0 0 7.963-7.963v-26.013h25.929c-3.838 24.628-25.193 43.532-50.88 43.532z"/></svg>