<svg xmlns="http://www.w3.org/2000/svg" viewBox="0 0 512 512"><path d="M512 367.165V213.244c0-18.566-15.105-33.67-33.67-33.67H267.437v-3.955c0-5.193-1.837-9.961-4.89-13.7a21.636 21.636 0 0 0 4.521-9.69c8.581-5.059 14.051-14.325 14.051-24.497 0-4.804-1.237-9.499-3.555-13.682a28.217 28.217 0 0 0 3.555-13.682c0-10.13-5.427-19.314-13.842-24.376.107-.992.16-1.988.16-2.988 0-14.409-10.734-26.359-24.626-28.272-5.072-8.523-14.305-13.949-24.437-13.949-1.301 0-2.615.1-3.931.3-5.659-4.582-12.728-7.141-20.012-7.141-.973 0-1.948.049-2.936.147-6.084-4.531-13.407-6.988-21.006-6.988s-14.922 2.457-21.007 6.988a29.705 29.705 0 0 0-2.936-.147 31.704 31.704 0 0 0-19.908 6.981c-9.011.899-17.031 6.08-21.63 13.81-13.892 1.912-24.626 13.862-24.626 28.271 0 .999.053 1.996.16 2.988C72.128 81.054 66.7 90.238 66.7 100.368c0 4.805 1.237 9.499 3.555 13.682a28.209 28.209 0 0 0-3.555 13.682c0 10.172 5.469 19.438 14.052 24.497a21.493 21.493 0 0 0 1.946 5.714c-5.532 3.937-9.157 10.384-9.157 17.675V189.3c0 11.964 9.733 21.699 21.699 21.699h3.563l.583 3.642a35.375 35.375 0 0 0 12.286 21.591l2.916 2.43v22.625a5.636 5.636 0 0 1-4 5.414l-59.96 18.449c-14.938 4.597-24.975 18.186-24.975 33.816v99.506c0 9.887 3.426 18.985 9.14 26.188H16.568C7.432 444.66 0 452.092 0 461.228v17.102c0 9.136 7.432 16.568 16.568 16.568h478.864c9.136 0 16.568-7.432 16.568-16.568v-17.102c0-9.136-7.432-16.568-16.568-16.568h-87.044l-5.844-43.825h75.786c18.565 0 33.67-15.104 33.67-33.67zM95.238 194.966a5.672 5.672 0 0 1-5.665-5.665v-13.682c0-2.07 1.128-3.865 2.79-4.854l3.873 24.201h-.998zm1.183-46.473c.032-.243.062-.485.084-.731a8.018 8.018 0 0 0-5.346-8.296c-5.04-1.756-8.426-6.471-8.426-11.733 0-3.877 1.776-6.662 3.265-8.316a8.02 8.02 0 0 0-.001-10.732c-1.49-1.654-3.265-4.439-3.265-8.316 0-5.586 3.808-10.518 9.262-11.994a8.015 8.015 0 0 0 5.345-10.726c-.615-1.527-.926-3.09-.926-4.643 0-6.798 5.452-12.347 12.214-12.503.341.046.684.084 1.033.105a8.018 8.018 0 0 0 8.048-5.365c1.727-4.958 6.317-8.314 11.475-8.423a8.033 8.033 0 0 0 6.223-2.273c3.006-2.948 6.962-4.572 11.138-4.572 1.081 0 2.227.14 3.503.427a8.02 8.02 0 0 0 7.247-1.976c3.635-3.411 8.32-5.29 13.194-5.29s9.559 1.879 13.193 5.291a8.016 8.016 0 0 0 7.247 1.976c1.276-.288 2.422-.427 3.503-.427 4.477 0 8.646 1.878 11.739 5.287a8.018 8.018 0 0 0 8.499 2.21c1.31-.441 2.523-.656 3.706-.656 5.262 0 9.978 3.386 11.734 8.425a8.012 8.012 0 0 0 8.048 5.365c.327-.019.649-.055 1.031-.105 6.762.155 12.215 5.705 12.215 12.503 0 1.553-.311 3.116-.925 4.642a8.014 8.014 0 0 0 5.346 10.727c5.452 1.476 9.261 6.408 9.261 11.994 0 3.877-1.776 6.662-3.265 8.316a8.018 8.018 0 0 0 0 10.732c1.49 1.654 3.265 4.439 3.265 8.316 0 5.262-3.386 9.978-8.426 11.733a8.018 8.018 0 0 0-5.346 8.296c.022.246.052.49.086.733-.106 2.434-1.81 4.545-4.217 5.185-.257.068-7.924.241-7.924.241l-4.61-27.66a8.022 8.022 0 0 0-8.506-6.676c-.372.028-.736.073-1.102.123l-.047.006c-4.108-.073-7.908-2.16-10.199-5.616a8.018 8.018 0 0 0-13.362-.001c-2.333 3.518-6.228 5.618-10.422 5.618-4.193 0-8.088-2.1-10.422-5.618a8.018 8.018 0 0 0-13.362-.001c-2.333 3.518-6.228 5.618-10.422 5.618-4.193 0-8.088-2.1-10.422-5.618a8.018 8.018 0 0 0-13.362-.001c-2.292 3.456-6.092 5.543-10.199 5.616l-.047-.006a18.05 18.05 0 0 0-1.103-.123c-4.125-.315-7.823 2.586-8.505 6.676l-4.609 27.663s-7.666-.172-7.923-.24c-2.405-.64-4.11-2.753-4.213-5.187zm154.983 27.126v3.955h-4.2l1.41-8.809c1.662.989 2.79 2.784 2.79 4.854zm-142.934-5.665h1.085a14.815 14.815 0 0 0 14.656-12.415l3.714-22.289a28.412 28.412 0 0 0 11.779-5.2 28.436 28.436 0 0 0 17.102 5.699 28.445 28.445 0 0 0 17.102-5.699 28.436 28.436 0 0 0 17.102 5.699 28.445 28.445 0 0 0 17.102-5.699 28.407 28.407 0 0 0 11.779 5.2l3.714 22.29a14.8 14.8 0 0 0 9.074 11.324l-1.713 10.71h-9.172c-18.566 0-33.67 15.105-33.67 33.67v35.58a12.52 12.52 0 0 1-4.544.869h-26.185c-2.92 0-5.763-1.029-8.006-2.899l-27.457-22.881a19.341 19.341 0 0 1-6.718-11.806l-6.744-42.153zm6.832 112.072c9.163-2.819 15.318-11.154 15.318-20.739v-9.264l8.506 7.089a28.591 28.591 0 0 0 18.271 6.615h26.185c1.525 0 3.045-.13 4.544-.374v51.584a88.708 88.708 0 0 1-14.286 1.166c-26.743 0-51.963-12.236-68.568-32.99l10.03-3.087zm-73.615 36.939c0-8.547 5.489-15.978 13.657-18.492l33.647-10.352c19.455 27.569 51.127 44.014 84.849 44.014 4.789 0 9.564-.337 14.286-.988v34.018c0 18.566 15.104 33.67 33.67 33.67h34.739v43.29c0 .181.015.357.027.534H212.71v-9.086c0-18.566-15.105-33.67-33.67-33.67H93.528a.534.534 0 0 1-.534-.534v-51.307a8.017 8.017 0 0 0-16.034 0v51.307c0 9.136 7.432 16.568 16.568 16.568h51.841v26.722H67.875c-14.44 0-26.188-11.748-26.188-26.188v-99.506zm154.989 116.609v9.086h-35.273v-26.722h17.637c9.724-.001 17.636 7.911 17.636 17.636zm298.756 25.119c.295 0 .534.239.534.534v17.102a.534.534 0 0 1-.534.534H16.568a.534.534 0 0 1-.534-.534v-17.102c0-.295.239-.534.534-.534h478.864zM272.541 444.66c.012-.177.027-.354.027-.534v-43.29h25.012l-5.844 43.825h-19.195zm35.371 0l13.913-104.349c.6-4.496 4.471-7.885 9.007-7.885h38.462c4.535 0 8.407 3.389 9.006 7.885l13.914 104.349h-84.302zm93.458-59.858c-.324 0-.64.025-.955.062l-6.223-46.672c-1.657-12.427-12.361-21.799-24.898-21.799h-38.462c-12.537 0-23.242 9.372-24.899 21.799l-6.223 46.672a8.119 8.119 0 0 0-.955-.062h-76.96c-9.725 0-17.637-7.912-17.637-17.637V213.244c0-9.725 7.912-17.637 17.637-17.637H478.33c9.725 0 17.637 7.912 17.637 17.637v153.921c0 9.725-7.912 17.637-17.637 17.637h-76.96z"/><path d="M350.063 247.983c-13.851 0-25.119 11.268-25.119 25.119 0 13.851 11.268 25.119 25.119 25.119 13.851 0 25.119-11.268 25.119-25.119 0-13.85-11.269-25.119-25.119-25.119zm0 34.205c-5.01 0-9.086-4.076-9.086-9.086 0-5.01 4.076-9.086 9.086-9.086 5.01 0 9.086 4.076 9.086 9.086-.001 5.01-4.076 9.086-9.086 9.086z"/></svg>