<svg viewBox="0 0 612 612"><path d="M154.543 610.728c-3.737 0-6.539-1.311-8.05-2.016l-119.602-.17c-.109.09-.566.309-.964.457-1.799.695-2.385 1.729-5.794 1.729-8.188 0-14.34-6.24-14.34-18.176V232.754c0-15.364 5.446-31.95 21.098-31.95h119.84c13.992 0 28.004 13.138 28.004 31.95v359.798c0 1.988-2.236 4.602-3.15 7.295-2.185 6.609-10.175 10.881-17.042 10.881zm-118.936-32.02h109.316V232.754c0-.715-4.293-1.441-4.373-2.117H31.682c-.179.745 3.925 1.521 3.925 2.117v345.954zm56.169-391.867C41.163 186.841 0 145.212 0 94.042c0-51.16 41.163-92.77 91.776-92.77 50.583 0 91.736 41.61 91.736 92.77 0 51.17-41.153 92.799-91.736 92.799zm0-155.735c-34.167 0-61.962 28.233-61.962 62.936 0 34.723 27.796 62.966 61.962 62.966 34.146 0 61.922-28.243 61.922-62.966 0-34.703-27.776-62.936-61.922-62.936zm501.978 579.622c-2.584 0-5.326-.715-7.801-2.186H470.326c-1.361.039-3.428.408-5.704.756-4.481.666-7.434 1.43-12.114 1.43-16.983 0-19.389-11.428-19.389-18.176V394.958c0-21.941-24.039-38.965-44.72-38.965s-44.721 17.023-44.721 38.965v188.641c0 2.98 2.365 6.967 2.365 10.941 0 8.924-8.695 16.188-18.087 16.188-3.061 0-6.985-.783-9.46-2.186h-87.871c-1.003.08-2.176.467-3.289.746-2.664.676-3.558 1.439-6.897 1.439-10.435 0-15.891-7.641-15.891-18.176V232.754c0-13.943 10.455-31.95 26.077-31.95h95.88c6.102 0 11.438 2.733 14.599 7.503 2.415 3.618 3.021 7.324 2.763 10.763 25.719-8.735 63.373-15.751 104.953-15.751 88.814 0 163.179 71.195 163.179 158.707v227.408c0 2.932-.606 6.201-1.342 9.439-1.539 6.788-9.946 11.855-16.903 11.855zM388.399 326.159c35.259 0 74.533 28.254 74.533 68.799v185.053c0-.08-1.112-.148-.616-.219 3.856-.586 5.049-1.084 8.01-1.084h111.86V362.024c0-69.853-62.23-128.873-133.365-128.873-53.128 0-96.248 12.601-116.134 23.403-4.61 2.495-8.605 2.395-13.138-.298-4.512-2.693-5.684-7.553-5.684-12.82v-10.683c0-.706-4.214-1.421-4.145-2.117h-77.127c-.914.795 1.769 2.156 1.769 3.13v344.94h-3.736 83.239v-183.75c.001-40.543 39.275-68.797 74.534-68.797z"/></svg>