<svg viewBox="0 0 55.941 55.941"><path d="M18.115 36.902l-5.596 8.04L8.57 41.7a1 1 0 1 0-1.268 1.545l4.786 3.929a.998.998 0 0 0 1.455-.201l6.214-8.929a1 1 0 1 0-1.642-1.142z"/><path d="M55.362 41.377c-2.008-3.796-8.981-7.912-9.287-8.092-1.278-.728-2.601-.953-3.721-.646-.844.234-1.532.768-1.996 1.546-1.02 1.22-2.285 2.646-2.592 2.867-2.368 1.603-4.25 1.414-6.294-.629L19.985 24.937c-2.045-2.045-2.233-3.928-.631-6.291.224-.31 1.649-1.575 2.87-2.596.778-.463 1.312-1.15 1.545-1.995.307-1.106.071-2.463-.652-3.732-.173-.296-4.29-7.269-8.085-9.276a4.91 4.91 0 0 0-5.796.872L6.699 4.455c-4.014 4.013-5.467 8.562-4.321 13.52.878 3.795 3.319 7.816 7.226 11.963C4.08 31.437 0 36.481 0 42.473c0 7.168 5.832 13 13 13 5.98 0 11.016-4.064 12.526-9.571 4.482 4.445 8.825 7.184 12.908 8.128 1.095.253 2.169.38 3.223.38 3.717-.001 7.169-1.574 10.296-4.701l2.537-2.537a4.906 4.906 0 0 0 .872-5.795zM13 53.473c-6.065 0-11-4.935-11-11 0-5.622 4.241-10.264 9.691-10.915l.02-.002c.148-.018.283-.027.422-.039.287-.022.574-.044.866-.044H13c6.065 0 11 4.935 11 11 0 .296-.021.587-.044.878-.012.136-.021.267-.038.412-.642 5.458-5.29 9.71-10.918 9.71zm40.076-7.715l-2.537 2.537c-3.542 3.543-7.354 4.777-11.655 3.787-3.762-.87-7.834-3.477-12.105-7.748l-.826-.825c.032-.365.047-.707.047-1.036 0-7.168-5.832-13-13-13h-.004c-.329 0-.67.016-1.031.047-4.206-4.231-6.776-8.267-7.638-11.996-.995-4.3.244-8.112 3.786-11.654l2.537-2.537a2.922 2.922 0 0 1 3.446-.519c3.293 1.743 7.255 8.453 7.289 8.51.449.788.62 1.609.457 2.197-.1.36-.323.633-.683.835l-.151.104c-.853.712-2.883 2.434-3.308 3.062-.612.904-1.018 1.793-1.231 2.666-.711-1.418-1.286-3.061-1.475-4.881a1.008 1.008 0 0 0-1.098-.892 1.002 1.002 0 0 0-.892 1.099c.722 6.953 6.129 11.479 6.359 11.668.026.021.056.029.083.047l10.61 10.61c.044.044.089.083.134.126.036.052.059.111.106.157.189.187 4.704 4.567 11.599 5.283a1.001 1.001 0 0 0 .206-1.99c-2.114-.219-3.987-.839-5.548-1.558.766-.23 1.544-.612 2.333-1.147.628-.425 2.351-2.455 3.062-3.308l.104-.151c.202-.359.475-.583.835-.683.588-.164 1.409.008 2.186.45.068.04 6.778 4.002 8.521 7.296a2.913 2.913 0 0 1-.518 3.444z"/></svg>