<svg xmlns="http://www.w3.org/2000/svg" viewBox="0 0 480 480"><path d="M464 300.392V120c0-22.056-17.944-40-40-40H320V40c0-22.056-17.944-40-40-40h-96c-22.056 0-40 17.944-40 40v40H40C17.944 80 0 97.944 0 120v280c0 22.056 17.944 40 40 40h230.808c21.984 24.488 53.768 40 89.192 40 66.168 0 120-53.832 120-120 0-21.704-5.88-42.024-16-59.608zM160 40c0-13.232 10.768-24 24-24h96c13.232 0 24 10.768 24 24v40h-16V40c0-4.416-3.576-8-8-8h-96c-4.424 0-8 3.584-8 8v40h-16V40zm112 8v32h-80V48h80zM16 136v-16c0-13.232 10.768-24 24-24h384c13.232 0 24 10.768 24 24v88c0 22.056-17.944 40-40 40h-5.272c-13.296-5.088-27.664-8-42.728-8s-29.432 2.912-42.728 8H280v-24c0-4.416-3.576-8-8-8h-80c-4.424 0-8 3.584-8 8v24H56c-22.056 0-40-17.944-40-40v-72zm432 111.112v31.576c-6.272-6.784-13.216-12.928-20.888-18.12 7.952-2.904 15.08-7.512 20.888-13.456zM264 232v16h-64v-16h64zM96 264v24H72v-24h24zM40 424c-13.232 0-24-10.768-24-24V247.112C26.176 257.52 40.336 264 56 264v32c0 4.416 3.576 8 8 8h40c4.424 0 8-3.584 8-8v-32h176.304C259.048 285.904 240 320.728 240 360c0 23.536 6.912 45.448 18.672 64H40zm423.592-56c-3.904 50.96-44.632 91.688-95.592 95.592V448h-16v15.592c-28.88-2.216-54.512-16.192-72-37.232V424h-1.808c-12.304-15.696-20.176-34.96-21.792-56H272v-16h-15.592c3.904-50.96 44.632-91.688 95.592-95.592V272h16v-15.592c50.96 3.904 91.688 44.632 95.592 95.592H448v16h15.592z"/><path d="M368 356.688V288h-16v72c0 2.12.84 4.16 2.344 5.656l48 48 11.312-11.312L368 356.688zM352 208h16v16h-16zm32 0h16v16h-16zm-64 0h16v16h-16z"/></svg>