<svg xmlns="http://www.w3.org/2000/svg" viewBox="0 0 512 512"><path d="M366.555 137.336a8.416 8.416 0 0 0-15.282 7.053c6.369 13.799 9.599 28.568 9.599 43.897 0 57.827-47.045 104.872-104.871 104.872-57.827 0-104.872-47.045-104.872-104.872 0-57.826 47.045-104.872 104.872-104.872 29.573 0 57.924 12.585 77.781 34.528a8.416 8.416 0 0 0 12.48-11.294c-23.043-25.462-55.942-40.065-90.261-40.065-67.108 0-121.704 54.596-121.704 121.704s54.596 121.704 121.704 121.704c67.107 0 121.703-54.596 121.703-121.704-.001-17.782-3.752-34.925-11.149-50.951z"/><path d="M424.083 188.286c0-6.442 2.82-13.903 5.806-21.802 4.508-11.925 9.169-24.257 5.228-36.393-4.106-12.644-15.903-20.329-26.311-27.112-6.836-4.454-13.294-8.66-16.812-13.495-3.593-4.937-5.636-12.456-7.8-20.416-3.235-11.905-6.902-25.398-17.505-33.114-10.496-7.638-23.794-7.011-36.652-6.405-8.306.392-16.151.762-22.081-1.164-5.519-1.792-11.42-6.562-17.667-11.612C280.56 8.913 269.533 0 256.001 0c-13.533 0-24.56 8.913-34.289 16.777-6.247 5.049-12.148 9.819-17.665 11.611-5.93 1.926-13.776 1.555-22.082 1.164-12.858-.607-26.157-1.234-36.653 6.405-10.603 7.716-14.269 21.209-17.505 33.114-2.163 7.96-4.207 15.479-7.8 20.416-3.518 4.834-9.976 9.041-16.812 13.495-10.409 6.781-22.206 14.467-26.31 27.11-3.941 12.136.72 24.468 5.228 36.394 2.985 7.899 5.805 15.36 5.805 21.802s-2.82 13.903-5.806 21.802c-4.508 11.926-9.169 24.258-5.228 36.394 4.106 12.643 15.903 20.329 26.311 27.11 6.836 4.454 13.294 8.661 16.812 13.495 3.593 4.937 5.636 12.457 7.8 20.416 3.235 11.905 6.902 25.398 17.505 33.114 10.495 7.638 23.793 7.011 36.652 6.405 8.305-.393 16.151-.762 22.081 1.164 5.519 1.792 11.42 6.562 17.668 11.612 4.701 3.799 9.71 7.836 15.153 11.002L204.6 486.541l-29.778-33.184a8.42 8.42 0 0 0-8.717-2.431l-42.635 12.992 26.731-95.86a8.416 8.416 0 0 0-16.213-4.521l-30.855 110.645a8.417 8.417 0 0 0 10.56 10.311l52.184-15.902 36.443 40.613a8.413 8.413 0 0 0 8.181 2.574 8.418 8.418 0 0 0 6.191-5.935l36.088-129.46a30.78 30.78 0 0 0 3.219.187c1.088 0 2.156-.077 3.213-.187l36.103 129.46a8.418 8.418 0 0 0 14.371 3.36l36.431-40.613 52.195 15.901a8.418 8.418 0 0 0 8.332-2.029 8.418 8.418 0 0 0 2.227-8.281l-38.214-137.05c7.617-7.905 10.742-19.355 13.534-29.631 2.163-7.96 4.207-15.479 7.8-20.416 3.518-4.834 9.976-9.041 16.812-13.495 10.409-6.781 22.206-14.467 26.31-27.109 3.941-12.136-.72-24.468-5.228-36.394-2.983-7.897-5.802-15.357-5.802-21.8zm-35.545 275.632l-42.648-12.992a8.413 8.413 0 0 0-8.718 2.431l-29.766 33.183-32.277-115.739c5.446-3.167 10.456-7.204 15.159-11.006 6.247-5.049 12.148-9.818 17.667-11.612 5.932-1.926 13.777-1.555 22.082-1.164 8.648.408 17.49.814 25.549-1.28l32.952 118.179zm30.569-222.633c-2.268 6.985-10.633 12.435-19.49 18.205-7.812 5.09-15.891 10.353-21.233 17.694-5.415 7.441-7.967 16.828-10.433 25.906-2.751 10.124-5.35 19.685-11.166 23.919-5.712 4.155-15.544 3.692-25.956 3.201-9.448-.444-19.219-.907-28.073 1.968-8.48 2.754-15.886 8.74-23.049 14.53-8.294 6.704-16.126 13.034-23.707 13.034-7.581 0-15.415-6.332-23.708-13.036-7.162-5.789-14.57-11.777-23.049-14.529-5.584-1.813-11.533-2.299-17.535-2.299-3.514 0-7.048.166-10.537.331-10.41.492-20.243.955-25.955-3.201-5.816-4.233-8.415-13.795-11.166-23.919-2.466-9.078-5.018-18.466-10.433-25.906-5.341-7.34-13.419-12.603-21.233-17.694-8.857-5.77-17.222-11.221-19.49-18.206-2.115-6.514 1.324-15.612 4.964-25.243 3.389-8.966 6.893-18.236 6.893-27.752s-3.504-18.788-6.892-27.752c-3.641-9.631-7.079-18.729-4.964-25.244 2.268-6.985 10.633-12.435 19.49-18.205 7.812-5.09 15.891-10.353 21.233-17.692 5.415-7.441 7.967-16.828 10.433-25.906 2.751-10.124 5.35-19.685 11.166-23.919 5.711-4.156 15.546-3.693 25.956-3.201 9.447.445 19.219.907 28.073-1.968 8.48-2.754 15.886-8.74 23.049-14.529 8.292-6.706 16.126-13.038 23.706-13.038 7.58 0 15.415 6.332 23.707 13.034 7.162 5.79 14.57 11.777 23.049 14.53 8.854 2.875 18.623 2.415 28.072 1.968 10.41-.49 20.244-.954 25.955 3.201 5.816 4.233 8.415 13.795 11.166 23.919 2.466 9.078 5.018 18.466 10.433 25.906 5.341 7.34 13.419 12.603 21.232 17.692 8.857 5.77 17.222 11.22 19.491 18.206 2.115 6.515-1.323 15.612-4.964 25.244-3.389 8.965-6.893 18.236-6.893 27.752 0 9.517 3.506 18.786 6.895 27.752 3.64 9.632 7.079 18.73 4.963 25.247z"/><path d="M288.506 135.945h-65.01a8.416 8.416 0 0 0 0 16.832h65.01a8.416 8.416 0 0 0 0-16.832zm0 87.85h-65.01a8.416 8.416 0 0 0 0 16.832h65.01a8.416 8.416 0 0 0 0-16.832zm23.305-43.925H286.46a8.416 8.416 0 0 0 0 16.832h25.351a8.416 8.416 0 0 0 0-16.832zm-51.707 0H200.19a8.416 8.416 0 0 0 0 16.832h59.914a8.416 8.416 0 0 0 0-16.832z"/></svg>